<?xml version="1.0" standalone="yes"?>

<svg version="1.1" viewBox="0.0 0.0 960.0 720.0" fill="none" stroke="none" stroke-linecap="square" stroke-miterlimit="10" xmlns="http://www.w3.org/2000/svg" xmlns:xlink="http://www.w3.org/1999/xlink"><clipPath id="p.0"><path d="m0 0l960.0 0l0 720.0l-960.0 0l0 -720.0z" clip-rule="nonzero"></path></clipPath><g clip-path="url(#p.0)"><path fill="#000000" fill-opacity="0.0" d="m0 0l960.0 0l0 720.0l-960.0 0z" fill-rule="nonzero"></path><path fill="#000000" fill-opacity="0.0" d="m682.2018 301.26044l0 0c0 -16.220978 13.149719 -29.370667 29.370667 -29.370667l214.07758 0c7.789551 0 15.260132 3.0943909 20.768188 8.6024475c5.5080566 5.508087 8.602478 12.978638 8.602478 20.768219l0 117.479126c0 16.220978 -13.149719 29.370667 -29.370667 29.370667l-214.07758 0c-16.220947 0 -29.370667 -13.149689 -29.370667 -29.370667z" fill-rule="nonzero"></path><path stroke="#000000" stroke-width="1.0" stroke-linejoin="round" stroke-linecap="butt" d="m682.2018 301.26044l0 0c0 -16.220978 13.149719 -29.370667 29.370667 -29.370667l214.07758 0c7.789551 0 15.260132 3.0943909 20.768188 8.6024475c5.5080566 5.508087 8.602478 12.978638 8.602478 20.768219l0 117.479126c0 16.220978 -13.149719 29.370667 -29.370667 29.370667l-214.07758 0c-16.220947 0 -29.370667 -13.149689 -29.370667 -29.370667z" fill-rule="nonzero"></path><path fill="#000000" d="m796.79266 297.6359q0 2.234375 -1.125 3.515625q-1.125 1.265625 -3.125 1.265625q-2.0625 0 -3.171875 -1.25q-1.109375 -1.25 -1.109375 -3.546875q0 -2.265625 1.109375 -3.5q1.125 -1.25 3.171875 -1.25q2.0 0 3.125 1.265625q1.125 1.265625 1.125 3.5zm-7.390625 0q0 1.890625 0.796875 2.875q0.8125 0.96875 2.34375 0.96875q1.53125 0 2.3125 -0.96875q0.796875 -0.984375 0.796875 -2.875q0 -1.875 -0.78125 -2.84375q-0.78125 -0.96875 -2.328125 -0.96875q-1.53125 0 -2.34375 0.984375q-0.796875 0.96875 -0.796875 2.828125zm12.801941 4.78125q-0.6875 0 -1.25 -0.25q-0.5625 -0.25 -0.9375 -0.765625l-0.078125 0q0.078125 0.609375 0.078125 1.15625l0 2.859375l-1.046875 0l0 -10.078125l0.84375 0l0.15625 0.953125l0.046875 0q0.40625 -0.578125 0.9375 -0.828125q0.546875 -0.25 1.25 -0.25q1.375 0 2.125 0.953125q0.765625 0.9375 0.765625 2.640625q0 1.71875 -0.765625 2.671875q-0.765625 0.9375 -2.125 0.9375zm-0.15625 -6.3125q-1.0625 0 -1.546875 0.59375q-0.46875 0.578125 -0.484375 1.875l0 0.234375q0 1.46875 0.484375 2.109375q0.5 0.625 1.578125 0.625q0.890625 0 1.40625 -0.734375q0.515625 -0.734375 0.515625 -2.015625q0 -1.296875 -0.515625 -1.984375q-0.515625 -0.703125 -1.4375 -0.703125zm8.026733 6.3125q-1.546875 0 -2.4375 -0.9375q-0.890625 -0.9375 -0.890625 -2.609375q0 -1.6875 0.828125 -2.671875q0.828125 -0.984375 2.21875 -0.984375q1.3125 0 2.0625 0.859375q0.765625 0.859375 0.765625 2.265625l0 0.671875l-4.78125 0q0.03125 1.21875 0.609375 1.859375q0.59375 0.625 1.65625 0.625q1.125 0 2.21875 -0.46875l0 0.9375q-0.5625 0.25 -1.0625 0.34375q-0.484375 0.109375 -1.1875 0.109375zm-0.296875 -6.328125q-0.828125 0 -1.328125 0.546875q-0.5 0.546875 -0.59375 1.515625l3.640625 0q0 -1.0 -0.453125 -1.53125q-0.4375 -0.53125 -1.265625 -0.53125zm9.586914 6.203125l0 -4.5q0 -0.84375 -0.390625 -1.265625q-0.375 -0.421875 -1.203125 -0.421875q-1.09375 0 -1.609375 0.59375q-0.5 0.578125 -0.5 1.9375l0 3.65625l-1.046875 0l0 -6.953125l0.84375 0l0.171875 0.953125l0.0625 0q0.3125 -0.515625 0.890625 -0.796875q0.59375 -0.28125 1.3125 -0.28125q1.25 0 1.890625 0.609375q0.640625 0.59375 0.640625 1.9375l0 4.53125l-1.0625 0zm8.821045 -2.46875q0 1.21875 -0.890625 1.90625q-0.890625 0.6875 -2.40625 0.6875q-1.65625 0 -2.546875 -0.421875l0 -1.046875q0.578125 0.25 1.25 0.390625q0.671875 0.140625 1.328125 0.140625q1.078125 0 1.625 -0.40625q0.546875 -0.421875 0.546875 -1.15625q0 -0.46875 -0.203125 -0.78125q-0.1875 -0.3125 -0.640625 -0.5625q-0.453125 -0.265625 -1.375 -0.59375q-1.296875 -0.46875 -1.859375 -1.09375q-0.546875 -0.640625 -0.546875 -1.671875q0 -1.0625 0.796875 -1.6875q0.8125 -0.640625 2.140625 -0.640625q1.375 0 2.546875 0.5l-0.34375 0.9375q-1.140625 -0.484375 -2.234375 -0.484375q-0.859375 0 -1.34375 0.375q-0.46875 0.359375 -0.46875 1.015625q0 0.484375 0.171875 0.796875q0.171875 0.3125 0.59375 0.5625q0.421875 0.25 1.296875 0.5625q1.46875 0.53125 2.015625 1.125q0.546875 0.59375 0.546875 1.546875zm6.6742554 2.46875l0 -4.5q0 -0.84375 -0.390625 -1.265625q-0.375 -0.421875 -1.203125 -0.421875q-1.09375 0 -1.609375 0.59375q-0.5 0.59375 -0.5 1.953125l0 3.640625l-1.046875 0l0 -9.875l1.046875 0l0 2.984375q0 0.546875 -0.046875 0.890625l0.0625 0q0.3125 -0.5 0.875 -0.78125q0.578125 -0.296875 1.3125 -0.296875q1.28125 0 1.921875 0.609375q0.640625 0.609375 0.640625 1.9375l0 4.53125l-1.0625 0zm4.477234 0l-1.046875 0l0 -6.953125l1.046875 0l0 6.953125zm-1.140625 -8.84375q0 -0.359375 0.171875 -0.53125q0.1875 -0.171875 0.453125 -0.171875q0.25 0 0.421875 0.171875q0.1875 0.171875 0.1875 0.53125q0 0.359375 -0.1875 0.53125q-0.171875 0.171875 -0.421875 0.171875q-0.265625 0 -0.453125 -0.171875q-0.171875 -0.171875 -0.171875 -0.53125zm6.5898438 2.703125l-1.765625 0l0 6.140625l-1.0625 0l0 -6.140625l-1.234375 0l0 -0.46875l1.234375 -0.390625l0 -0.375q0 -2.578125 2.25 -2.578125q0.546875 0 1.296875 0.234375l-0.28125 0.84375q-0.609375 -0.203125 -1.03125 -0.203125q-0.609375 0 -0.890625 0.40625q-0.28125 0.390625 -0.28125 1.265625l0 0.453125l1.765625 0l0 0.8125zm3.6258545 5.390625q0.28125 0 0.546875 -0.03125q0.265625 -0.046875 0.40625 -0.09375l0 0.8125q-0.171875 0.078125 -0.5 0.125q-0.328125 0.0625 -0.59375 0.0625q-2.03125 0 -2.03125 -2.125l0 -4.140625l-0.984375 0l0 -0.5l0.984375 -0.4375l0.453125 -1.484375l0.609375 0l0 1.609375l2.015625 0l0 0.8125l-2.015625 0l0 4.09375q0 0.625 0.296875 0.96875q0.296875 0.328125 0.8125 0.328125z" fill-rule="nonzero"></path><path fill="#f0e161" d="m4.9803143 301.26044l0 0c0 -16.220978 13.149694 -29.370667 29.370665 -29.370667l460.81772 0c7.7895813 0 15.260132 3.0943909 20.768188 8.6024475c5.5080566 5.508087 8.602478 12.978638 8.602478 20.768219l0 117.479126c0 16.220978 -13.149689 29.370667 -29.370667 29.370667l-460.81772 0c-16.22097 0 -29.370665 -13.149689 -29.370665 -29.370667z" fill-rule="nonzero"></path><path stroke="#000000" stroke-width="1.0" stroke-linejoin="round" stroke-linecap="butt" d="m4.9803143 301.26044l0 0c0 -16.220978 13.149694 -29.370667 29.370665 -29.370667l460.81772 0c7.7895813 0 15.260132 3.0943909 20.768188 8.6024475c5.5080566 5.508087 8.602478 12.978638 8.602478 20.768219l0 117.479126c0 16.220978 -13.149689 29.370667 -29.370667 29.370667l-460.81772 0c-16.22097 0 -29.370665 -13.149689 -29.370665 -29.370667z" fill-rule="nonzero"></path><path fill="#000000" d="m232.52672 302.29214l-1.0625 0l-1.875 -6.21875q-0.140625 -0.40625 -0.3125 -1.03125q-0.15625 -0.640625 -0.15625 -0.765625q-0.140625 0.84375 -0.453125 1.84375l-1.8125 6.171875l-1.0625 0l-2.46875 -9.28125l1.140625 0l1.46875 5.734375q0.296875 1.203125 0.4375 2.1875q0.171875 -1.171875 0.515625 -2.28125l1.65625 -5.640625l1.140625 0l1.75 5.6875q0.3125 0.984375 0.515625 2.234375q0.125 -0.90625 0.453125 -2.203125l1.46875 -5.71875l1.140625 0l-2.484375 9.28125zm7.026428 0.125q-1.546875 0 -2.4375 -0.9375q-0.890625 -0.9375 -0.890625 -2.609375q0 -1.6875 0.828125 -2.671875q0.828125 -0.984375 2.21875 -0.984375q1.3125 0 2.0625 0.859375q0.765625 0.859375 0.765625 2.265625l0 0.671875l-4.78125 0q0.03125 1.21875 0.609375 1.859375q0.59375 0.625 1.65625 0.625q1.125 0 2.21875 -0.46875l0 0.9375q-0.5625 0.25 -1.0625 0.34375q-0.484375 0.109375 -1.1875 0.109375zm-0.296875 -6.328125q-0.828125 0 -1.328125 0.546875q-0.5 0.546875 -0.59375 1.515625l3.640625 0q0 -1.0 -0.453125 -1.53125q-0.4375 -0.53125 -1.265625 -0.53125zm8.071304 -0.875q1.359375 0 2.125 0.9375q0.765625 0.9375 0.765625 2.65625q0 1.71875 -0.765625 2.671875q-0.765625 0.9375 -2.125 0.9375q-0.6875 0 -1.25 -0.25q-0.5625 -0.25 -0.9375 -0.765625l-0.078125 0l-0.21875 0.890625l-0.75 0l0 -9.875l1.046875 0l0 2.390625q0 0.8125 -0.046875 1.453125l0.046875 0q0.734375 -1.046875 2.1875 -1.046875zm-0.15625 0.890625q-1.078125 0 -1.5625 0.625q-0.46875 0.609375 -0.46875 2.078125q0 1.46875 0.484375 2.109375q0.5 0.625 1.578125 0.625q0.96875 0 1.4375 -0.703125q0.484375 -0.71875 0.484375 -2.046875q0 -1.359375 -0.484375 -2.015625q-0.46875 -0.671875 -1.46875 -0.671875zm8.707703 -3.09375l2.609375 0q1.859375 0 2.671875 0.5625q0.828125 0.546875 0.828125 1.734375q0 0.828125 -0.46875 1.375q-0.453125 0.53125 -1.328125 0.6875l0 0.0625q2.109375 0.359375 2.109375 2.21875q0 1.25 -0.84375 1.953125q-0.828125 0.6875 -2.34375 0.6875l-3.234375 0l0 -9.28125zm1.078125 3.96875l1.765625 0q1.15625 0 1.65625 -0.359375q0.5 -0.359375 0.5 -1.203125q0 -0.78125 -0.5625 -1.125q-0.5625 -0.34375 -1.78125 -0.34375l-1.578125 0l0 3.03125zm0 0.921875l0 3.46875l1.9375 0q1.125 0 1.6875 -0.4375q0.5625 -0.4375 0.5625 -1.359375q0 -0.859375 -0.578125 -1.265625q-0.578125 -0.40625 -1.765625 -0.40625l-1.84375 0zm10.573456 -2.6875q0.453125 0 0.828125 0.0625l-0.140625 0.984375q-0.4375 -0.09375 -0.765625 -0.09375q-0.84375 0 -1.453125 0.6875q-0.59375 0.6875 -0.59375 1.703125l0 3.734375l-1.046875 0l0 -6.953125l0.859375 0l0.125 1.28125l0.046875 0q0.390625 -0.671875 0.9375 -1.03125q0.546875 -0.375 1.203125 -0.375zm8.268707 3.59375q0 1.703125 -0.859375 2.65625q-0.859375 0.953125 -2.375 0.953125q-0.921875 0 -1.65625 -0.4375q-0.71875 -0.4375 -1.109375 -1.25q-0.390625 -0.828125 -0.390625 -1.921875q0 -1.703125 0.84375 -2.640625q0.859375 -0.953125 2.359375 -0.953125q1.46875 0 2.328125 0.96875q0.859375 0.96875 0.859375 2.625zm-5.296875 0q0 1.328125 0.53125 2.03125q0.53125 0.703125 1.5625 0.703125q1.03125 0 1.5625 -0.6875q0.546875 -0.703125 0.546875 -2.046875q0 -1.328125 -0.546875 -2.015625q-0.53125 -0.6875 -1.578125 -0.6875q-1.03125 0 -1.5625 0.6875q-0.515625 0.671875 -0.515625 2.015625zm13.019012 3.484375l-1.28125 -4.078125q-0.109375 -0.375 -0.4375 -1.703125l-0.0625 0q-0.25 1.109375 -0.4375 1.71875l-1.3125 4.0625l-1.21875 0l-1.90625 -6.953125l1.109375 0q0.671875 2.625 1.015625 4.0q0.359375 1.359375 0.40625 1.828125l0.0625 0q0.0625 -0.359375 0.21875 -0.921875q0.15625 -0.578125 0.265625 -0.921875l1.28125 -3.984375l1.140625 0l1.25 3.984375q0.359375 1.09375 0.484375 1.84375l0.046875 0q0.03125 -0.234375 0.140625 -0.703125q0.109375 -0.484375 1.3125 -5.125l1.09375 0l-1.921875 6.953125l-1.25 0zm9.179535 -1.890625q0 0.96875 -0.734375 1.5q-0.71875 0.515625 -2.03125 0.515625q-1.375 0 -2.15625 -0.4375l0 -0.96875q0.5 0.25 1.078125 0.390625q0.578125 0.140625 1.109375 0.140625q0.828125 0 1.265625 -0.25q0.453125 -0.265625 0.453125 -0.8125q0 -0.40625 -0.359375 -0.6875q-0.34375 -0.296875 -1.375 -0.6875q-0.96875 -0.359375 -1.375 -0.625q-0.40625 -0.28125 -0.609375 -0.625q-0.203125 -0.34375 -0.203125 -0.8125q0 -0.84375 0.6875 -1.328125q0.703125 -0.5 1.90625 -0.5q1.125 0 2.1875 0.453125l-0.375 0.859375q-1.046875 -0.4375 -1.890625 -0.4375q-0.75 0 -1.140625 0.234375q-0.375 0.234375 -0.375 0.65625q0 0.265625 0.140625 0.46875q0.15625 0.203125 0.46875 0.375q0.3125 0.171875 1.21875 0.515625q1.234375 0.453125 1.671875 0.90625q0.4375 0.453125 0.4375 1.15625zm4.8113403 2.015625q-1.546875 0 -2.4375 -0.9375q-0.890625 -0.9375 -0.890625 -2.609375q0 -1.6875 0.828125 -2.671875q0.828125 -0.984375 2.21875 -0.984375q1.3125 0 2.0625 0.859375q0.765625 0.859375 0.765625 2.265625l0 0.671875l-4.78125 0q0.03125 1.21875 0.609375 1.859375q0.59375 0.625 1.65625 0.625q1.125 0 2.21875 -0.46875l0 0.9375q-0.5625 0.25 -1.0625 0.34375q-0.484375 0.109375 -1.1875 0.109375zm-0.296875 -6.328125q-0.828125 0 -1.328125 0.546875q-0.5 0.546875 -0.59375 1.515625l3.640625 0q0 -1.0 -0.453125 -1.53125q-0.4375 -0.53125 -1.265625 -0.53125zm8.008789 -0.875q0.453125 0 0.828125 0.0625l-0.140625 0.984375q-0.4375 -0.09375 -0.765625 -0.09375q-0.84375 0 -1.453125 0.6875q-0.59375 0.6875 -0.59375 1.703125l0 3.734375l-1.046875 0l0 -6.953125l0.859375 0l0.125 1.28125l0.046875 0q0.390625 -0.671875 0.9375 -1.03125q0.546875 -0.375 1.203125 -0.375z" fill-rule="nonzero"></path><path fill="#ebd52c" d="m16.314909 348.38797l0 0c0 -9.610809 7.791107 -17.401917 17.401922 -17.401917l463.2119 0c4.615265 0 9.041504 1.8334045 12.305023 5.0968933c3.2634888 3.2635193 5.096863 7.6897583 5.096863 12.305023l0 69.60562c0 9.610809 -7.7910767 17.401917 -17.401886 17.401917l-463.2119 0l0 0c-9.610815 0 -17.401922 -7.791107 -17.401922 -17.401917z" fill-rule="nonzero"></path><path stroke="#000000" stroke-width="1.0" stroke-linejoin="round" stroke-linecap="butt" d="m16.314909 348.38797l0 0c0 -9.610809 7.791107 -17.401917 17.401922 -17.401917l463.2119 0c4.615265 0 9.041504 1.8334045 12.305023 5.0968933c3.2634888 3.2635193 5.096863 7.6897583 5.096863 12.305023l0 69.60562c0 9.610809 -7.7910767 17.401917 -17.401886 17.401917l-463.2119 0l0 0c-9.610815 0 -17.401922 -7.791107 -17.401922 -17.401917z" fill-rule="nonzero"></path><path fill="#000000" d="m241.63362 357.8829l-1.15625 -2.953125l-3.71875 0l-1.140625 2.953125l-1.09375 0l3.671875 -9.3125l0.90625 0l3.65625 9.3125l-1.125 0zm-1.484375 -3.921875l-1.09375 -2.875q-0.203125 -0.546875 -0.421875 -1.34375q-0.140625 0.609375 -0.40625 1.34375l-1.09375 2.875l3.015625 0zm8.684204 3.921875l0 -4.5q0 -0.84375 -0.390625 -1.265625q-0.375 -0.421875 -1.203125 -0.421875q-1.09375 0 -1.609375 0.59375q-0.5 0.578125 -0.5 1.9375l0 3.65625l-1.046875 0l0 -6.953125l0.84375 0l0.171875 0.953125l0.0625 0q0.3125 -0.515625 0.890625 -0.796875q0.59375 -0.28125 1.3125 -0.28125q1.25 0 1.890625 0.609375q0.640625 0.59375 0.640625 1.9375l0 4.53125l-1.0625 0zm9.117905 -6.953125l0 0.65625l-1.296875 0.15625q0.1875 0.21875 0.328125 0.578125q0.140625 0.359375 0.140625 0.8125q0 1.03125 -0.703125 1.640625q-0.703125 0.609375 -1.921875 0.609375q-0.3125 0 -0.578125 -0.0625q-0.671875 0.359375 -0.671875 0.90625q0 0.28125 0.234375 0.421875q0.234375 0.125 0.8125 0.125l1.21875 0q1.140625 0 1.734375 0.484375q0.609375 0.46875 0.609375 1.375q0 1.15625 -0.921875 1.765625q-0.921875 0.609375 -2.703125 0.609375q-1.359375 0 -2.109375 -0.515625q-0.734375 -0.5 -0.734375 -1.421875q0 -0.640625 0.40625 -1.109375q0.40625 -0.453125 1.140625 -0.625q-0.265625 -0.125 -0.453125 -0.375q-0.171875 -0.25 -0.171875 -0.59375q0 -0.375 0.203125 -0.65625q0.203125 -0.296875 0.640625 -0.5625q-0.546875 -0.21875 -0.890625 -0.75q-0.328125 -0.53125 -0.328125 -1.21875q0 -1.140625 0.6875 -1.75q0.6875 -0.625 1.9375 -0.625q0.546875 0 0.984375 0.125l2.40625 0zm-5.546875 8.125q0 0.5625 0.46875 0.84375q0.484375 0.296875 1.375 0.296875q1.328125 0 1.953125 -0.390625q0.640625 -0.390625 0.640625 -1.078125q0 -0.5625 -0.34375 -0.78125q-0.34375 -0.21875 -1.3125 -0.21875l-1.265625 0q-0.71875 0 -1.125 0.34375q-0.390625 0.34375 -0.390625 0.984375zm0.5625 -5.90625q0 0.734375 0.40625 1.109375q0.421875 0.375 1.15625 0.375q1.546875 0 1.546875 -1.5q0 -1.5625 -1.5625 -1.5625q-0.734375 0 -1.140625 0.40625q-0.40625 0.390625 -0.40625 1.171875zm7.5830994 -2.21875l0 4.515625q0 0.84375 0.375 1.265625q0.390625 0.421875 1.21875 0.421875q1.09375 0 1.59375 -0.59375q0.515625 -0.609375 0.515625 -1.953125l0 -3.65625l1.046875 0l0 6.953125l-0.859375 0l-0.15625 -0.9375l-0.0625 0q-0.328125 0.515625 -0.90625 0.796875q-0.5625 0.265625 -1.296875 0.265625q-1.28125 0 -1.90625 -0.59375q-0.625 -0.609375 -0.625 -1.9375l0 -4.546875l1.0625 0zm8.242889 6.953125l-1.046875 0l0 -9.875l1.046875 0l0 9.875zm6.5898438 0l-0.203125 -0.984375l-0.046875 0q-0.53125 0.640625 -1.046875 0.875q-0.515625 0.234375 -1.28125 0.234375q-1.046875 0 -1.640625 -0.53125q-0.578125 -0.53125 -0.578125 -1.515625q0 -2.109375 3.375 -2.203125l1.171875 -0.046875l0 -0.4375q0 -0.8125 -0.359375 -1.203125q-0.34375 -0.390625 -1.109375 -0.390625q-0.875 0 -1.96875 0.53125l-0.328125 -0.796875q0.515625 -0.28125 1.125 -0.4375q0.609375 -0.171875 1.234375 -0.171875q1.25 0 1.84375 0.5625q0.59375 0.546875 0.59375 1.765625l0 4.75l-0.78125 0zm-2.375 -0.75q0.984375 0 1.546875 -0.53125q0.5625 -0.546875 0.5625 -1.515625l0 -0.625l-1.0625 0.046875q-1.25 0.046875 -1.8125 0.390625q-0.546875 0.34375 -0.546875 1.078125q0 0.5625 0.34375 0.859375q0.34375 0.296875 0.96875 0.296875zm8.693726 -6.328125q0.453125 0 0.828125 0.0625l-0.140625 0.984375q-0.4375 -0.09375 -0.765625 -0.09375q-0.84375 0 -1.453125 0.6875q-0.59375 0.6875 -0.59375 1.703125l0 3.734375l-1.046875 0l0 -6.953125l0.859375 0l0.125 1.28125l0.046875 0q0.390625 -0.671875 0.9375 -1.03125q0.546875 -0.375 1.203125 -0.375zm2.1124573 6.40625q0 -0.421875 0.1875 -0.640625q0.203125 -0.21875 0.5625 -0.21875q0.359375 0 0.5625 0.21875q0.21875 0.21875 0.21875 0.640625q0 0.40625 -0.21875 0.640625q-0.203125 0.21875 -0.5625 0.21875q-0.328125 0 -0.546875 -0.203125q-0.203125 -0.203125 -0.203125 -0.65625zm2.843689 3.796875q-0.59375 0 -0.96875 -0.15625l0 -0.859375q0.4375 0.125 0.859375 0.125q0.5 0 0.734375 -0.28125q0.234375 -0.265625 0.234375 -0.8125l0 -8.09375l1.046875 0l0 8.015625q0 2.0625 -1.90625 2.0625zm0.765625 -11.96875q0 -0.359375 0.171875 -0.53125q0.1875 -0.171875 0.453125 -0.171875q0.25 0 0.421875 0.171875q0.1875 0.171875 0.1875 0.53125q0 0.359375 -0.1875 0.53125q-0.171875 0.171875 -0.421875 0.171875q-0.265625 0 -0.453125 -0.171875q-0.171875 -0.171875 -0.171875 -0.53125zm7.949188 6.953125q0 0.96875 -0.734375 1.5q-0.71875 0.515625 -2.03125 0.515625q-1.375 0 -2.15625 -0.4375l0 -0.96875q0.5 0.25 1.078125 0.390625q0.578125 0.140625 1.109375 0.140625q0.828125 0 1.265625 -0.25q0.453125 -0.265625 0.453125 -0.8125q0 -0.40625 -0.359375 -0.6875q-0.34375 -0.296875 -1.375 -0.6875q-0.96875 -0.359375 -1.375 -0.625q-0.40625 -0.28125 -0.609375 -0.625q-0.203125 -0.34375 -0.203125 -0.8125q0 -0.84375 0.6875 -1.328125q0.703125 -0.5 1.90625 -0.5q1.125 0 2.1875 0.453125l-0.375 0.859375q-1.046875 -0.4375 -1.890625 -0.4375q-0.75 0 -1.140625 0.234375q-0.375 0.234375 -0.375 0.65625q0 0.265625 0.140625 0.46875q0.15625 0.203125 0.46875 0.375q0.3125 0.171875 1.21875 0.515625q1.234375 0.453125 1.671875 0.90625q0.4375 0.453125 0.4375 1.15625z" fill-rule="nonzero"></path><path fill="#f7ee9a" d="m29.349377 383.37125l0 0c0 -4.256012 3.45018 -7.7061768 7.706192 -7.7061768l91.327774 0c2.043808 0 4.0039062 0.81188965 5.4490967 2.25708c1.4451904 1.4451904 2.2570953 3.4052734 2.2570953 5.4490967l0 30.823853c0 4.256012 -3.45018 7.7061768 -7.706192 7.7061768l-91.327774 0c-4.256012 0 -7.706192 -3.4501648 -7.706192 -7.7061768z" fill-rule="nonzero"></path><path stroke="#000000" stroke-width="1.0" stroke-linejoin="round" stroke-linecap="butt" d="m29.349377 383.37125l0 0c0 -4.256012 3.45018 -7.7061768 7.706192 -7.7061768l91.327774 0c2.043808 0 4.0039062 0.81188965 5.4490967 2.25708c1.4451904 1.4451904 2.2570953 3.4052734 2.2570953 5.4490967l0 30.823853c0 4.256012 -3.45018 7.7061768 -7.706192 7.7061768l-91.327774 0c-4.256012 0 -7.706192 -3.4501648 -7.706192 -7.7061768z" fill-rule="nonzero"></path><path fill="#000000" d="m74.0875 394.6638l0.984375 0l-2.828125 7.859375l-0.90625 0l-2.8125 -7.859375l0.96875 0l1.796875 5.09375q0.3125 0.875 0.5 1.703125q0.1875 -0.875 0.5 -1.734375l1.796875 -5.0625zm2.6240082 7.859375l-0.890625 0l0 -5.890625l0.890625 0l0 5.890625zm-0.96875 -7.484375q0 -0.296875 0.140625 -0.4375q0.15625 -0.15625 0.375 -0.15625q0.21875 0 0.375 0.15625q0.15625 0.140625 0.15625 0.4375q0 0.296875 -0.15625 0.453125q-0.15625 0.140625 -0.375 0.140625q-0.21875 0 -0.375 -0.140625q-0.140625 -0.15625 -0.140625 -0.453125zm5.257782 7.59375q-1.3125 0 -2.0625 -0.796875q-0.75 -0.796875 -0.75 -2.203125q0 -1.421875 0.6875 -2.265625q0.703125 -0.84375 1.890625 -0.84375q1.109375 0 1.75 0.734375q0.640625 0.734375 0.640625 1.921875l0 0.5625l-4.046875 0q0.015625 1.03125 0.515625 1.578125q0.5 0.53125 1.40625 0.53125q0.953125 0 1.875 -0.390625l0 0.78125q-0.46875 0.21875 -0.890625 0.296875q-0.421875 0.09375 -1.015625 0.09375zm-0.25 -5.359375q-0.703125 0 -1.125 0.46875q-0.421875 0.453125 -0.5 1.28125l3.078125 0q0 -0.84375 -0.375 -1.296875q-0.375 -0.453125 -1.078125 -0.453125zm8.541031 5.25l-1.078125 -3.453125q-0.09375 -0.3125 -0.375 -1.4375l-0.046875 0q-0.21875 0.9375 -0.375 1.453125l-1.109375 3.4375l-1.03125 0l-1.609375 -5.890625l0.9375 0q0.5625 2.21875 0.859375 3.390625q0.296875 1.15625 0.34375 1.546875l0.046875 0q0.0625 -0.296875 0.1875 -0.78125q0.125 -0.484375 0.234375 -0.78125l1.078125 -3.375l0.96875 0l1.046875 3.375q0.296875 0.9375 0.40625 1.5625l0.046875 0q0.015625 -0.203125 0.109375 -0.59375q0.09375 -0.40625 1.125 -4.34375l0.921875 0l-1.625 5.890625l-1.0625 0zm7.2887726 -1.609375q0 0.828125 -0.625 1.28125q-0.609375 0.4375 -1.71875 0.4375q-1.171875 0 -1.828125 -0.375l0 -0.828125q0.4375 0.21875 0.921875 0.34375q0.484375 0.125 0.9375 0.125q0.6875 0 1.0625 -0.21875q0.390625 -0.234375 0.390625 -0.6875q0 -0.34375 -0.3125 -0.578125q-0.296875 -0.25 -1.15625 -0.59375q-0.828125 -0.296875 -1.171875 -0.515625q-0.34375 -0.234375 -0.515625 -0.53125q-0.171875 -0.296875 -0.171875 -0.6875q0 -0.71875 0.578125 -1.140625q0.59375 -0.421875 1.625 -0.421875q0.953125 0 1.859375 0.390625l-0.328125 0.734375q-0.875 -0.375 -1.59375 -0.375q-0.640625 0 -0.96875 0.203125q-0.3125 0.203125 -0.3125 0.546875q0 0.234375 0.109375 0.40625q0.125 0.15625 0.390625 0.3125q0.28125 0.15625 1.03125 0.4375q1.046875 0.375 1.421875 0.765625q0.375 0.390625 0.375 0.96875z" fill-rule="nonzero"></path><path fill="#779bcc" d="m692.70764 351.663l0 0c0 -8.935303 7.243469 -16.178802 16.178772 -16.178802l219.70538 0c4.2908936 0 8.406006 1.7045593 11.4401245 4.7386475c3.0341187 3.0341187 4.7387085 7.1492615 4.7387085 11.440155l0 64.71326c0 8.935303 -7.2435303 16.178802 -16.178833 16.178802l-219.70538 0l0 0c-8.935303 0 -16.178772 -7.2434998 -16.178772 -16.178802z" fill-rule="nonzero"></path><path stroke="#000000" stroke-width="1.0" stroke-linejoin="round" stroke-linecap="butt" d="m692.70764 351.663l0 0c0 -8.935303 7.243469 -16.178802 16.178772 -16.178802l219.70538 0c4.2908936 0 8.406006 1.7045593 11.4401245 4.7386475c3.0341187 3.0341187 4.7387085 7.1492615 4.7387085 11.440155l0 64.71326c0 8.935303 -7.2435303 16.178802 -16.178833 16.178802l-219.70538 0l0 0c-8.935303 0 -16.178772 -7.2434998 -16.178772 -16.178802z" fill-rule="nonzero"></path><path fill="#000000" d="m744.0156 364.4603q-0.59375 0 -0.9375 -0.171875l0 -0.90625q0.453125 0.125 0.9375 0.125q0.625 0 0.953125 -0.390625q0.328125 -0.375 0.328125 -1.09375l0 -9.28125l1.078125 0l0 9.1875q0 1.21875 -0.609375 1.875q-0.609375 0.65625 -1.75 0.65625zm4.9191895 -11.71875l2.609375 0q1.859375 0 2.671875 0.5625q0.828125 0.546875 0.828125 1.734375q0 0.828125 -0.46875 1.375q-0.453125 0.53125 -1.328125 0.6875l0 0.0625q2.109375 0.359375 2.109375 2.21875q0 1.25 -0.84375 1.953125q-0.828125 0.6875 -2.34375 0.6875l-3.234375 0l0 -9.28125zm1.078125 3.96875l1.765625 0q1.15625 0 1.65625 -0.359375q0.5 -0.359375 0.5 -1.203125q0 -0.78125 -0.5625 -1.125q-0.5625 -0.34375 -1.78125 -0.34375l-1.578125 0l0 3.03125zm0 0.921875l0 3.46875l1.9375 0q1.125 0 1.6875 -0.4375q0.5625 -0.4375 0.5625 -1.359375q0 -0.859375 -0.578125 -1.265625q-0.578125 -0.40625 -1.765625 -0.40625l-1.84375 0zm13.40155 0.90625q0 1.703125 -0.859375 2.65625q-0.859375 0.953125 -2.375 0.953125q-0.921875 0 -1.65625 -0.4375q-0.71875 -0.4375 -1.109375 -1.25q-0.390625 -0.828125 -0.390625 -1.921875q0 -1.703125 0.84375 -2.640625q0.859375 -0.953125 2.359375 -0.953125q1.46875 0 2.328125 0.96875q0.859375 0.96875 0.859375 2.625zm-5.296875 0q0 1.328125 0.53125 2.03125q0.53125 0.703125 1.5625 0.703125q1.03125 0 1.5625 -0.6875q0.546875 -0.703125 0.546875 -2.046875q0 -1.328125 -0.546875 -2.015625q-0.53125 -0.6875 -1.578125 -0.6875q-1.03125 0 -1.5625 0.6875q-0.515625 0.671875 -0.515625 2.015625zm11.831543 1.59375q0 0.96875 -0.734375 1.5q-0.71875 0.515625 -2.03125 0.515625q-1.375 0 -2.15625 -0.4375l0 -0.96875q0.5 0.25 1.078125 0.390625q0.578125 0.140625 1.109375 0.140625q0.828125 0 1.265625 -0.25q0.453125 -0.265625 0.453125 -0.8125q0 -0.40625 -0.359375 -0.6875q-0.34375 -0.296875 -1.375 -0.6875q-0.96875 -0.359375 -1.375 -0.625q-0.40625 -0.28125 -0.609375 -0.625q-0.203125 -0.34375 -0.203125 -0.8125q0 -0.84375 0.6875 -1.328125q0.703125 -0.5 1.90625 -0.5q1.125 0 2.1875 0.453125l-0.375 0.859375q-1.046875 -0.4375 -1.890625 -0.4375q-0.75 0 -1.140625 0.234375q-0.375 0.234375 -0.375 0.65625q0 0.265625 0.140625 0.46875q0.15625 0.203125 0.46875 0.375q0.3125 0.171875 1.21875 0.515625q1.234375 0.453125 1.671875 0.90625q0.4375 0.453125 0.4375 1.15625zm6.3581543 0q0 0.96875 -0.734375 1.5q-0.71875 0.515625 -2.03125 0.515625q-1.375 0 -2.15625 -0.4375l0 -0.96875q0.5 0.25 1.078125 0.390625q0.578125 0.140625 1.109375 0.140625q0.828125 0 1.265625 -0.25q0.453125 -0.265625 0.453125 -0.8125q0 -0.40625 -0.359375 -0.6875q-0.34375 -0.296875 -1.375 -0.6875q-0.96875 -0.359375 -1.375 -0.625q-0.40625 -0.28125 -0.609375 -0.625q-0.203125 -0.34375 -0.203125 -0.8125q0 -0.84375 0.6875 -1.328125q0.703125 -0.5 1.90625 -0.5q1.125 0 2.1875 0.453125l-0.375 0.859375q-1.046875 -0.4375 -1.890625 -0.4375q-0.75 0 -1.140625 0.234375q-0.375 0.234375 -0.375 0.65625q0 0.265625 0.140625 0.46875q0.15625 0.203125 0.46875 0.375q0.3125 0.171875 1.21875 0.515625q1.234375 0.453125 1.671875 0.90625q0.4375 0.453125 0.4375 1.15625zm11.320435 1.890625l-1.15625 -2.953125l-3.71875 0l-1.140625 2.953125l-1.09375 0l3.671875 -9.3125l0.90625 0l3.65625 9.3125l-1.125 0zm-1.484375 -3.921875l-1.09375 -2.875q-0.203125 -0.546875 -0.421875 -1.34375q-0.140625 0.609375 -0.40625 1.34375l-1.09375 2.875l3.015625 0zm7.168579 4.046875q-0.6875 0 -1.25 -0.25q-0.5625 -0.25 -0.9375 -0.765625l-0.078125 0q0.078125 0.609375 0.078125 1.15625l0 2.859375l-1.046875 0l0 -10.078125l0.84375 0l0.15625 0.953125l0.046875 0q0.40625 -0.578125 0.9375 -0.828125q0.546875 -0.25 1.25 -0.25q1.375 0 2.125 0.953125q0.765625 0.9375 0.765625 2.640625q0 1.71875 -0.765625 2.671875q-0.765625 0.9375 -2.125 0.9375zm-0.15625 -6.3125q-1.0625 0 -1.546875 0.59375q-0.46875 0.578125 -0.484375 1.875l0 0.234375q0 1.46875 0.484375 2.109375q0.5 0.625 1.578125 0.625q0.890625 0 1.40625 -0.734375q0.515625 -0.734375 0.515625 -2.015625q0 -1.296875 -0.515625 -1.984375q-0.515625 -0.703125 -1.4375 -0.703125zm8.323608 6.3125q-0.6875 0 -1.25 -0.25q-0.5625 -0.25 -0.9375 -0.765625l-0.078125 0q0.078125 0.609375 0.078125 1.15625l0 2.859375l-1.046875 0l0 -10.078125l0.84375 0l0.15625 0.953125l0.046875 0q0.40625 -0.578125 0.9375 -0.828125q0.546875 -0.25 1.25 -0.25q1.375 0 2.125 0.953125q0.765625 0.9375 0.765625 2.640625q0 1.71875 -0.765625 2.671875q-0.765625 0.9375 -2.125 0.9375zm-0.15625 -6.3125q-1.0625 0 -1.546875 0.59375q-0.46875 0.578125 -0.484375 1.875l0 0.234375q0 1.46875 0.484375 2.109375q0.5 0.625 1.578125 0.625q0.890625 0 1.40625 -0.734375q0.515625 -0.734375 0.515625 -2.015625q0 -1.296875 -0.515625 -1.984375q-0.515625 -0.703125 -1.4375 -0.703125zm6.1361694 6.1875l-1.046875 0l0 -9.875l1.046875 0l0 9.875zm3.3710327 0l-1.046875 0l0 -6.953125l1.046875 0l0 6.953125zm-1.140625 -8.84375q0 -0.359375 0.171875 -0.53125q0.1875 -0.171875 0.453125 -0.171875q0.25 0 0.421875 0.171875q0.1875 0.171875 0.1875 0.53125q0 0.359375 -0.1875 0.53125q-0.171875 0.171875 -0.421875 0.171875q-0.265625 0 -0.453125 -0.171875q-0.171875 -0.171875 -0.171875 -0.53125zm6.2304688 8.96875q-1.5 0 -2.328125 -0.921875q-0.828125 -0.9375 -0.828125 -2.640625q0 -1.75 0.828125 -2.6875q0.84375 -0.953125 2.40625 -0.953125q0.5 0 1.0 0.109375q0.5 0.09375 0.78125 0.25l-0.3125 0.890625q-0.359375 -0.140625 -0.765625 -0.234375q-0.40625 -0.09375 -0.734375 -0.09375q-2.109375 0 -2.109375 2.703125q0 1.28125 0.515625 1.96875q0.515625 0.6875 1.53125 0.6875q0.859375 0 1.78125 -0.375l0 0.9375q-0.703125 0.359375 -1.765625 0.359375zm7.845215 -0.125l-0.203125 -0.984375l-0.046875 0q-0.53125 0.640625 -1.046875 0.875q-0.515625 0.234375 -1.28125 0.234375q-1.046875 0 -1.640625 -0.53125q-0.578125 -0.53125 -0.578125 -1.515625q0 -2.109375 3.375 -2.203125l1.171875 -0.046875l0 -0.4375q0 -0.8125 -0.359375 -1.203125q-0.34375 -0.390625 -1.109375 -0.390625q-0.875 0 -1.96875 0.53125l-0.328125 -0.796875q0.515625 -0.28125 1.125 -0.4375q0.609375 -0.171875 1.234375 -0.171875q1.25 0 1.84375 0.5625q0.59375 0.546875 0.59375 1.765625l0 4.75l-0.78125 0zm-2.375 -0.75q0.984375 0 1.546875 -0.53125q0.5625 -0.546875 0.5625 -1.515625l0 -0.625l-1.0625 0.046875q-1.25 0.046875 -1.8125 0.390625q-0.546875 0.34375 -0.546875 1.078125q0 0.5625 0.34375 0.859375q0.34375 0.296875 0.96875 0.296875zm7.7562256 0q0.28125 0 0.546875 -0.03125q0.265625 -0.046875 0.40625 -0.09375l0 0.8125q-0.171875 0.078125 -0.5 0.125q-0.328125 0.0625 -0.59375 0.0625q-2.03125 0 -2.03125 -2.125l0 -4.140625l-0.984375 0l0 -0.5l0.984375 -0.4375l0.453125 -1.484375l0.609375 0l0 1.609375l2.015625 0l0 0.8125l-2.015625 0l0 4.09375q0 0.625 0.296875 0.96875q0.296875 0.328125 0.8125 0.328125zm3.5177002 0.75l-1.046875 0l0 -6.953125l1.046875 0l0 6.953125zm-1.140625 -8.84375q0 -0.359375 0.171875 -0.53125q0.1875 -0.171875 0.453125 -0.171875q0.25 0 0.421875 0.171875q0.1875 0.171875 0.1875 0.53125q0 0.359375 -0.1875 0.53125q-0.171875 0.171875 -0.421875 0.171875q-0.265625 0 -0.453125 -0.171875q-0.171875 -0.171875 -0.171875 -0.53125zm9.464783 5.359375q0 1.703125 -0.859375 2.65625q-0.859375 0.953125 -2.375 0.953125q-0.921875 0 -1.65625 -0.4375q-0.71875 -0.4375 -1.109375 -1.25q-0.390625 -0.828125 -0.390625 -1.921875q0 -1.703125 0.84375 -2.640625q0.859375 -0.953125 2.359375 -0.953125q1.46875 0 2.328125 0.96875q0.859375 0.96875 0.859375 2.625zm-5.296875 0q0 1.328125 0.53125 2.03125q0.53125 0.703125 1.5625 0.703125q1.03125 0 1.5625 -0.6875q0.546875 -0.703125 0.546875 -2.046875q0 -1.328125 -0.546875 -2.015625q-0.53125 -0.6875 -1.578125 -0.6875q-1.03125 0 -1.5625 0.6875q-0.515625 0.671875 -0.515625 2.015625zm12.097168 3.484375l0 -4.5q0 -0.84375 -0.390625 -1.265625q-0.375 -0.421875 -1.203125 -0.421875q-1.09375 0 -1.609375 0.59375q-0.5 0.578125 -0.5 1.9375l0 3.65625l-1.046875 0l0 -6.953125l0.84375 0l0.171875 0.953125l0.0625 0q0.3125 -0.515625 0.890625 -0.796875q0.59375 -0.28125 1.3125 -0.28125q1.25 0 1.890625 0.609375q0.640625 0.59375 0.640625 1.9375l0 4.53125l-1.0625 0zm12.283203 -2.46875q0 1.21875 -0.890625 1.90625q-0.890625 0.6875 -2.40625 0.6875q-1.65625 0 -2.546875 -0.421875l0 -1.046875q0.578125 0.25 1.25 0.390625q0.671875 0.140625 1.328125 0.140625q1.078125 0 1.625 -0.40625q0.546875 -0.421875 0.546875 -1.15625q0 -0.46875 -0.203125 -0.78125q-0.1875 -0.3125 -0.640625 -0.5625q-0.453125 -0.265625 -1.375 -0.59375q-1.296875 -0.46875 -1.859375 -1.09375q-0.546875 -0.640625 -0.546875 -1.671875q0 -1.0625 0.796875 -1.6875q0.8125 -0.640625 2.140625 -0.640625q1.375 0 2.546875 0.5l-0.34375 0.9375q-1.140625 -0.484375 -2.234375 -0.484375q-0.859375 0 -1.34375 0.375q-0.46875 0.359375 -0.46875 1.015625q0 0.484375 0.171875 0.796875q0.171875 0.3125 0.59375 0.5625q0.421875 0.25 1.296875 0.5625q1.46875 0.53125 2.015625 1.125q0.546875 0.59375 0.546875 1.546875zm4.8616943 2.59375q-1.546875 0 -2.4375 -0.9375q-0.890625 -0.9375 -0.890625 -2.609375q0 -1.6875 0.828125 -2.671875q0.828125 -0.984375 2.21875 -0.984375q1.3125 0 2.0625 0.859375q0.765625 0.859375 0.765625 2.265625l0 0.671875l-4.78125 0q0.03125 1.21875 0.609375 1.859375q0.59375 0.625 1.65625 0.625q1.125 0 2.21875 -0.46875l0 0.9375q-0.5625 0.25 -1.0625 0.34375q-0.484375 0.109375 -1.1875 0.109375zm-0.296875 -6.328125q-0.828125 0 -1.328125 0.546875q-0.5 0.546875 -0.59375 1.515625l3.640625 0q0 -1.0 -0.453125 -1.53125q-0.4375 -0.53125 -1.265625 -0.53125zm8.00885 -0.875q0.453125 0 0.828125 0.0625l-0.140625 0.984375q-0.4375 -0.09375 -0.765625 -0.09375q-0.84375 0 -1.453125 0.6875q-0.59375 0.6875 -0.59375 1.703125l0 3.734375l-1.046875 0l0 -6.953125l0.859375 0l0.125 1.28125l0.046875 0q0.390625 -0.671875 0.9375 -1.03125q0.546875 -0.375 1.203125 -0.375zm3.7843018 7.078125l-2.640625 -6.953125l1.125 0l1.5 4.125q0.515625 1.4375 0.59375 1.875l0.0625 0q0.0625 -0.328125 0.4375 -1.390625q0.375 -1.0625 1.671875 -4.609375l1.125 0l-2.640625 6.953125l-1.234375 0zm8.098938 0.125q-1.546875 0 -2.4375 -0.9375q-0.890625 -0.9375 -0.890625 -2.609375q0 -1.6875 0.828125 -2.671875q0.828125 -0.984375 2.21875 -0.984375q1.3125 0 2.0625 0.859375q0.765625 0.859375 0.765625 2.265625l0 0.671875l-4.78125 0q0.03125 1.21875 0.609375 1.859375q0.59375 0.625 1.65625 0.625q1.125 0 2.21875 -0.46875l0 0.9375q-0.5625 0.25 -1.0625 0.34375q-0.484375 0.109375 -1.1875 0.109375zm-0.296875 -6.328125q-0.828125 0 -1.328125 0.546875q-0.5 0.546875 -0.59375 1.515625l3.640625 0q0 -1.0 -0.453125 -1.53125q-0.4375 -0.53125 -1.265625 -0.53125zm8.00885 -0.875q0.453125 0 0.828125 0.0625l-0.140625 0.984375q-0.4375 -0.09375 -0.765625 -0.09375q-0.84375 0 -1.453125 0.6875q-0.59375 0.6875 -0.59375 1.703125l0 3.734375l-1.046875 0l0 -6.953125l0.859375 0l0.125 1.28125l0.046875 0q0.390625 -0.671875 0.9375 -1.03125q0.546875 -0.375 1.203125 -0.375z" fill-rule="nonzero"></path><path fill="#c5d8eb" d="m762.4636 384.67117l0 0c0 -3.8704224 3.1376343 -7.008026 7.0080566 -7.008026l98.29895 0c1.8585815 0 3.6411133 0.7383423 4.9553833 2.0526123c1.31427 1.3142395 2.0526123 3.0967712 2.0526123 4.955414l0 28.03122c0 3.8703918 -3.1376343 7.0079956 -7.0079956 7.0079956l-98.29895 0l0 0c-3.8704224 0 -7.0080566 -3.1376038 -7.0080566 -7.0079956z" fill-rule="nonzero"></path><path stroke="#000000" stroke-width="1.0" stroke-linejoin="round" stroke-linecap="butt" d="m762.4636 384.67117l0 0c0 -3.8704224 3.1376343 -7.008026 7.0080566 -7.008026l98.29895 0c1.8585815 0 3.6411133 0.7383423 4.9553833 2.0526123c1.31427 1.3142395 2.0526123 3.0967712 2.0526123 4.955414l0 28.03122c0 3.8703918 -3.1376343 7.0079956 -7.0079956 7.0079956l-98.29895 0l0 0c-3.8704224 0 -7.0080566 -3.1376038 -7.0080566 -7.0079956z" fill-rule="nonzero"></path><path fill="#000000" d="m799.0433 399.16113l0 3.265625l-0.921875 0l0 -7.859375l2.15625 0q1.4375 0 2.125 0.5625q0.703125 0.546875 0.703125 1.65625q0 1.5625 -1.578125 2.109375l2.125 3.53125l-1.078125 0l-1.90625 -3.265625l-1.625 0zm0 -0.78125l1.25 0q0.96875 0 1.40625 -0.375q0.453125 -0.390625 0.453125 -1.171875q0 -0.765625 -0.46875 -1.109375q-0.453125 -0.34375 -1.453125 -0.34375l-1.1875 0l0 3.0zm10.040405 4.046875l-4.375 0l0 -7.859375l4.375 0l0 0.8125l-3.453125 0l0 2.53125l3.25 0l0 0.8125l-3.25 0l0 2.890625l3.453125 0l0 0.8125zm5.9890137 -2.09375q0 1.046875 -0.765625 1.625q-0.75 0.578125 -2.03125 0.578125q-1.390625 0 -2.15625 -0.359375l0 -0.890625q0.484375 0.21875 1.046875 0.34375q0.578125 0.109375 1.140625 0.109375q0.90625 0 1.375 -0.34375q0.46875 -0.359375 0.46875 -0.96875q0 -0.40625 -0.171875 -0.671875q-0.15625 -0.265625 -0.546875 -0.484375q-0.390625 -0.21875 -1.171875 -0.5q-1.09375 -0.390625 -1.5625 -0.921875q-0.46875 -0.546875 -0.46875 -1.40625q0 -0.90625 0.671875 -1.4375q0.6875 -0.546875 1.8125 -0.546875q1.171875 0 2.15625 0.4375l-0.28125 0.796875q-0.96875 -0.421875 -1.890625 -0.421875q-0.734375 0 -1.140625 0.3125q-0.40625 0.3125 -0.40625 0.875q0 0.40625 0.140625 0.671875q0.15625 0.25 0.515625 0.46875q0.359375 0.21875 1.09375 0.484375q1.234375 0.4375 1.703125 0.953125q0.46875 0.5 0.46875 1.296875zm3.8328247 2.09375l-0.921875 0l0 -7.046875l-2.484375 0l0 -0.8125l5.890625 0l0 0.8125l-2.484375 0l0 7.046875zm11.179016 0l-0.984375 -2.5l-3.140625 0l-0.96875 2.5l-0.921875 0l3.109375 -7.890625l0.765625 0l3.09375 7.890625l-0.953125 0zm-1.265625 -3.3125l-0.90625 -2.4375q-0.1875 -0.46875 -0.375 -1.140625q-0.109375 0.515625 -0.328125 1.140625l-0.921875 2.4375l2.53125 0zm8.055908 -2.25q0 1.1875 -0.8125 1.828125q-0.8125 0.640625 -2.328125 0.640625l-0.921875 0l0 3.09375l-0.921875 0l0 -7.859375l2.03125 0q2.953125 0 2.953125 2.296875zm-4.0625 1.6875l0.8125 0q1.21875 0 1.75 -0.390625q0.546875 -0.390625 0.546875 -1.25q0 -0.78125 -0.515625 -1.15625q-0.5 -0.390625 -1.578125 -0.390625l-1.015625 0l0 3.1875zm5.4937744 3.875l0 -7.859375l0.921875 0l0 7.859375l-0.921875 0z" fill-rule="nonzero"></path><path fill="#000000" fill-opacity="0.0" d="m500.15396 398.78317l262.29922 -0.09448242" fill-rule="nonzero"></path><path stroke="#000000" stroke-width="1.0" stroke-linejoin="round" stroke-linecap="butt" d="m500.15396 398.78317l256.29922 -0.092315674" fill-rule="evenodd"></path><path fill="#000000" stroke="#000000" stroke-width="1.0" stroke-linecap="butt" d="m756.45374 400.3426l4.5375366 -1.6533813l-4.5386963 -1.6500854z" fill-rule="evenodd"></path><path fill="#f7ee9a" d="m211.38159 383.37125l0 0c0 -4.256012 3.4501648 -7.7061768 7.7061768 -7.7061768l91.32779 0c2.0437927 0 4.0039062 0.81188965 5.4490967 2.25708c1.4451904 1.4451904 2.25708 3.4052734 2.25708 5.4490967l0 30.823853c0 4.256012 -3.4501648 7.7061768 -7.7061768 7.7061768l-91.32779 0c-4.256012 0 -7.7061768 -3.4501648 -7.7061768 -7.7061768z" fill-rule="nonzero"></path><path stroke="#000000" stroke-width="1.0" stroke-linejoin="round" stroke-linecap="butt" d="m211.38159 383.37125l0 0c0 -4.256012 3.4501648 -7.7061768 7.7061768 -7.7061768l91.32779 0c2.0437927 0 4.0039062 0.81188965 5.4490967 2.25708c1.4451904 1.4451904 2.25708 3.4052734 2.25708 5.4490967l0 30.823853c0 4.256012 -3.4501648 7.7061768 -7.7061768 7.7061768l-91.32779 0c-4.256012 0 -7.7061768 -3.4501648 -7.7061768 -7.7061768z" fill-rule="nonzero"></path><path fill="#000000" d="m241.66399 395.3669q-1.296875 0 -2.046875 0.875q-0.734375 0.859375 -0.734375 2.359375q0 1.53125 0.71875 2.375q0.71875 0.84375 2.0625 0.84375q0.8125 0 1.875 -0.296875l0 0.796875q-0.828125 0.3125 -2.015625 0.3125q-1.734375 0 -2.6875 -1.046875q-0.9375 -1.0625 -0.9375 -3.0q0 -1.21875 0.453125 -2.125q0.453125 -0.921875 1.3125 -1.40625q0.859375 -0.5 2.015625 -0.5q1.234375 0 2.15625 0.453125l-0.390625 0.78125q-0.890625 -0.421875 -1.78125 -0.421875zm8.316345 4.203125q0 1.4375 -0.734375 2.25q-0.71875 0.8125 -2.0 0.8125q-0.78125 0 -1.40625 -0.375q-0.609375 -0.375 -0.9375 -1.0625q-0.328125 -0.6875 -0.328125 -1.625q0 -1.4375 0.71875 -2.234375q0.71875 -0.8125 1.984375 -0.8125q1.25 0 1.96875 0.828125q0.734375 0.828125 0.734375 2.21875zm-4.484375 0q0 1.125 0.4375 1.71875q0.453125 0.59375 1.328125 0.59375q0.875 0 1.328125 -0.578125q0.46875 -0.59375 0.46875 -1.734375q0 -1.125 -0.46875 -1.703125q-0.453125 -0.578125 -1.328125 -0.578125q-0.875 0 -1.328125 0.578125q-0.4375 0.5625 -0.4375 1.703125zm9.858292 2.953125l0 -3.8125q0 -0.71875 -0.328125 -1.0625q-0.328125 -0.359375 -1.015625 -0.359375q-0.921875 0 -1.359375 0.5q-0.421875 0.5 -0.421875 1.640625l0 3.09375l-0.890625 0l0 -5.890625l0.71875 0l0.140625 0.8125l0.046875 0q0.265625 -0.4375 0.765625 -0.671875q0.5 -0.25 1.109375 -0.25q1.0625 0 1.59375 0.515625q0.53125 0.515625 0.53125 1.640625l0 3.84375l-0.890625 0zm4.415497 -0.625q0.234375 0 0.453125 -0.03125q0.234375 -0.046875 0.359375 -0.078125l0 0.6875q-0.15625 0.0625 -0.4375 0.109375q-0.28125 0.046875 -0.5 0.046875q-1.703125 0 -1.703125 -1.796875l0 -3.5l-0.84375 0l0 -0.4375l0.84375 -0.375l0.375 -1.25l0.515625 0l0 1.359375l1.703125 0l0 0.703125l-1.703125 0l0 3.453125q0 0.53125 0.25 0.828125q0.25 0.28125 0.6875 0.28125zm4.5431824 -5.375q0.390625 0 0.703125 0.0625l-0.109375 0.828125q-0.375 -0.078125 -0.65625 -0.078125q-0.703125 0 -1.21875 0.59375q-0.5 0.578125 -0.5 1.4375l0 3.15625l-0.890625 0l0 -5.890625l0.734375 0l0.09375 1.09375l0.046875 0q0.328125 -0.578125 0.78125 -0.890625q0.46875 -0.3125 1.015625 -0.3125zm6.7561646 3.046875q0 1.4375 -0.734375 2.25q-0.71875 0.8125 -2.0 0.8125q-0.78125 0 -1.40625 -0.375q-0.609375 -0.375 -0.9375 -1.0625q-0.328125 -0.6875 -0.328125 -1.625q0 -1.4375 0.71875 -2.234375q0.71875 -0.8125 1.984375 -0.8125q1.25 0 1.96875 0.828125q0.734375 0.828125 0.734375 2.21875zm-4.484375 0q0 1.125 0.4375 1.71875q0.453125 0.59375 1.328125 0.59375q0.875 0 1.328125 -0.578125q0.46875 -0.59375 0.46875 -1.734375q0 -1.125 -0.46875 -1.703125q-0.453125 -0.578125 -1.328125 -0.578125q-0.875 0 -1.328125 0.578125q-0.4375 0.5625 -0.4375 1.703125zm6.733307 2.953125l-0.890625 0l0 -8.359375l0.890625 0l0 8.359375zm2.695282 0l-0.890625 0l0 -8.359375l0.890625 0l0 8.359375zm4.289032 0.109375q-1.3125 0 -2.0625 -0.796875q-0.75 -0.796875 -0.75 -2.203125q0 -1.421875 0.6875 -2.265625q0.703125 -0.84375 1.890625 -0.84375q1.109375 0 1.75 0.734375q0.640625 0.734375 0.640625 1.921875l0 0.5625l-4.046875 0q0.015625 1.03125 0.515625 1.578125q0.5 0.53125 1.40625 0.53125q0.953125 0 1.875 -0.390625l0 0.78125q-0.46875 0.21875 -0.890625 0.296875q-0.421875 0.09375 -1.015625 0.09375zm-0.25 -5.359375q-0.703125 0 -1.125 0.46875q-0.421875 0.453125 -0.5 1.28125l3.078125 0q0 -0.84375 -0.375 -1.296875q-0.375 -0.453125 -1.078125 -0.453125zm6.4160156 -0.75q0.390625 0 0.703125 0.0625l-0.109375 0.828125q-0.375 -0.078125 -0.65625 -0.078125q-0.703125 0 -1.21875 0.59375q-0.5 0.578125 -0.5 1.4375l0 3.15625l-0.890625 0l0 -5.890625l0.734375 0l0.09375 1.09375l0.046875 0q0.328125 -0.578125 0.78125 -0.890625q0.46875 -0.3125 1.015625 -0.3125zm5.4749146 4.390625q0 0.828125 -0.625 1.28125q-0.609375 0.4375 -1.71875 0.4375q-1.171875 0 -1.828125 -0.375l0 -0.828125q0.4375 0.21875 0.921875 0.34375q0.484375 0.125 0.9375 0.125q0.6875 0 1.0625 -0.21875q0.390625 -0.234375 0.390625 -0.6875q0 -0.34375 -0.3125 -0.578125q-0.296875 -0.25 -1.15625 -0.59375q-0.828125 -0.296875 -1.171875 -0.515625q-0.34375 -0.234375 -0.515625 -0.53125q-0.171875 -0.296875 -0.171875 -0.6875q0 -0.71875 0.578125 -1.140625q0.59375 -0.421875 1.625 -0.421875q0.953125 0 1.859375 0.390625l-0.328125 0.734375q-0.875 -0.375 -1.59375 -0.375q-0.640625 0 -0.96875 0.203125q-0.3125 0.203125 -0.3125 0.546875q0 0.234375 0.109375 0.40625q0.125 0.15625 0.390625 0.3125q0.28125 0.15625 1.03125 0.4375q1.046875 0.375 1.421875 0.765625q0.375 0.390625 0.375 0.96875z" fill-rule="nonzero"></path><path fill="#f7ee9a" d="m393.4138 383.37125l0 0c0 -4.256012 3.4501953 -7.7061768 7.7062073 -7.7061768l91.32776 0c2.0438232 0 4.0039062 0.81188965 5.4490967 2.25708c1.4451904 1.4451904 2.2571106 3.4052734 2.2571106 5.4490967l0 30.823853c0 4.256012 -3.4501953 7.7061768 -7.7062073 7.7061768l-91.32776 0c-4.256012 0 -7.7062073 -3.4501648 -7.7062073 -7.7061768z" fill-rule="nonzero"></path><path stroke="#000000" stroke-width="1.0" stroke-linejoin="round" stroke-linecap="butt" d="m393.4138 383.37125l0 0c0 -4.256012 3.4501953 -7.7061768 7.7062073 -7.7061768l91.32776 0c2.0438232 0 4.0039062 0.81188965 5.4490967 2.25708c1.4451904 1.4451904 2.2571106 3.4052734 2.2571106 5.4490967l0 30.823853c0 4.256012 -3.4501953 7.7061768 -7.7062073 7.7061768l-91.32776 0c-4.256012 0 -7.7062073 -3.4501648 -7.7062073 -7.7061768z" fill-rule="nonzero"></path><path fill="#000000" d="m422.5494 402.52316l0 -3.8125q0 -0.71875 -0.328125 -1.0625q-0.328125 -0.359375 -1.015625 -0.359375q-0.921875 0 -1.359375 0.5q-0.421875 0.5 -0.421875 1.640625l0 3.09375l-0.890625 0l0 -5.890625l0.71875 0l0.140625 0.8125l0.046875 0q0.265625 -0.4375 0.765625 -0.671875q0.5 -0.25 1.109375 -0.25q1.0625 0 1.59375 0.515625q0.53125 0.515625 0.53125 1.640625l0 3.84375l-0.890625 0zm7.3373413 -5.890625l0 0.5625l-1.09375 0.140625q0.15625 0.1875 0.265625 0.484375q0.125 0.296875 0.125 0.6875q0 0.859375 -0.59375 1.375q-0.59375 0.515625 -1.625 0.515625q-0.265625 0 -0.484375 -0.046875q-0.578125 0.3125 -0.578125 0.765625q0 0.234375 0.203125 0.359375q0.203125 0.109375 0.6875 0.109375l1.03125 0q0.953125 0 1.46875 0.40625q0.515625 0.40625 0.515625 1.171875q0 0.96875 -0.78125 1.484375q-0.78125 0.515625 -2.296875 0.515625q-1.140625 0 -1.78125 -0.4375q-0.625 -0.421875 -0.625 -1.203125q0 -0.53125 0.34375 -0.9375q0.34375 -0.390625 0.96875 -0.53125q-0.21875 -0.09375 -0.375 -0.3125q-0.15625 -0.21875 -0.15625 -0.5q0 -0.3125 0.171875 -0.546875q0.171875 -0.25 0.546875 -0.484375q-0.453125 -0.1875 -0.75 -0.640625q-0.28125 -0.453125 -0.28125 -1.03125q0 -0.96875 0.578125 -1.484375q0.578125 -0.53125 1.640625 -0.53125q0.46875 0 0.84375 0.109375l2.03125 0zm-4.703125 6.875q0 0.484375 0.40625 0.71875q0.40625 0.25 1.15625 0.25q1.125 0 1.65625 -0.328125q0.546875 -0.328125 0.546875 -0.90625q0 -0.484375 -0.296875 -0.671875q-0.296875 -0.1875 -1.109375 -0.1875l-1.0625 0q-0.609375 0 -0.953125 0.296875q-0.34375 0.296875 -0.34375 0.828125zm0.484375 -4.984375q0 0.609375 0.34375 0.9375q0.359375 0.3125 0.984375 0.3125q1.296875 0 1.296875 -1.265625q0 -1.328125 -1.3125 -1.328125q-0.625 0 -0.96875 0.34375q-0.34375 0.328125 -0.34375 1.0zm6.291168 0.734375l0 3.265625l-0.921875 0l0 -7.859375l2.15625 0q1.4375 0 2.125 0.5625q0.703125 0.546875 0.703125 1.65625q0 1.5625 -1.578125 2.109375l2.125 3.53125l-1.078125 0l-1.90625 -3.265625l-1.625 0zm0 -0.78125l1.25 0q0.96875 0 1.40625 -0.375q0.453125 -0.390625 0.453125 -1.171875q0 -0.765625 -0.46875 -1.109375q-0.453125 -0.34375 -1.453125 -0.34375l-1.1875 0l0 3.0zm8.024811 4.15625q-1.3125 0 -2.0625 -0.796875q-0.75 -0.796875 -0.75 -2.203125q0 -1.421875 0.6875 -2.265625q0.703125 -0.84375 1.890625 -0.84375q1.109375 0 1.75 0.734375q0.640625 0.734375 0.640625 1.921875l0 0.5625l-4.046875 0q0.015625 1.03125 0.515625 1.578125q0.5 0.53125 1.40625 0.53125q0.953125 0 1.875 -0.390625l0 0.78125q-0.46875 0.21875 -0.890625 0.296875q-0.421875 0.09375 -1.015625 0.09375zm-0.25 -5.359375q-0.703125 0 -1.125 0.46875q-0.421875 0.453125 -0.5 1.28125l3.078125 0q0 -0.84375 -0.375 -1.296875q-0.375 -0.453125 -1.078125 -0.453125zm7.541046 3.640625q0 0.828125 -0.625 1.28125q-0.609375 0.4375 -1.71875 0.4375q-1.171875 0 -1.828125 -0.375l0 -0.828125q0.4375 0.21875 0.921875 0.34375q0.484375 0.125 0.9375 0.125q0.6875 0 1.0625 -0.21875q0.390625 -0.234375 0.390625 -0.6875q0 -0.34375 -0.3125 -0.578125q-0.296875 -0.25 -1.15625 -0.59375q-0.828125 -0.296875 -1.171875 -0.515625q-0.34375 -0.234375 -0.515625 -0.53125q-0.171875 -0.296875 -0.171875 -0.6875q0 -0.71875 0.578125 -1.140625q0.59375 -0.421875 1.625 -0.421875q0.953125 0 1.859375 0.390625l-0.328125 0.734375q-0.875 -0.375 -1.59375 -0.375q-0.640625 0 -0.96875 0.203125q-0.3125 0.203125 -0.3125 0.546875q0 0.234375 0.109375 0.40625q0.125 0.15625 0.390625 0.3125q0.28125 0.15625 1.03125 0.4375q1.046875 0.375 1.421875 0.765625q0.375 0.390625 0.375 0.96875zm6.364807 -1.34375q0 1.4375 -0.734375 2.25q-0.71875 0.8125 -2.0 0.8125q-0.78125 0 -1.40625 -0.375q-0.609375 -0.375 -0.9375 -1.0625q-0.328125 -0.6875 -0.328125 -1.625q0 -1.4375 0.71875 -2.234375q0.71875 -0.8125 1.984375 -0.8125q1.25 0 1.96875 0.828125q0.734375 0.828125 0.734375 2.21875zm-4.484375 0q0 1.125 0.4375 1.71875q0.453125 0.59375 1.328125 0.59375q0.875 0 1.328125 -0.578125q0.46875 -0.59375 0.46875 -1.734375q0 -1.125 -0.46875 -1.703125q-0.453125 -0.578125 -1.328125 -0.578125q-0.875 0 -1.328125 0.578125q-0.4375 0.5625 -0.4375 1.703125zm6.670807 -2.9375l0 3.828125q0 0.71875 0.328125 1.078125q0.328125 0.34375 1.03125 0.34375q0.921875 0 1.34375 -0.5q0.4375 -0.515625 0.4375 -1.65625l0 -3.09375l0.890625 0l0 5.890625l-0.734375 0l-0.140625 -0.796875l-0.046875 0q-0.265625 0.4375 -0.765625 0.671875q-0.484375 0.234375 -1.09375 0.234375q-1.078125 0 -1.625 -0.5q-0.53125 -0.515625 -0.53125 -1.640625l0 -3.859375l0.90625 0zm8.384216 -0.109375q0.390625 0 0.703125 0.0625l-0.109375 0.828125q-0.375 -0.078125 -0.65625 -0.078125q-0.703125 0 -1.21875 0.59375q-0.5 0.578125 -0.5 1.4375l0 3.15625l-0.890625 0l0 -5.890625l0.734375 0l0.09375 1.09375l0.046875 0q0.328125 -0.578125 0.78125 -0.890625q0.46875 -0.3125 1.015625 -0.3125zm4.0217896 6.109375q-1.28125 0 -1.984375 -0.78125q-0.6875 -0.796875 -0.6875 -2.234375q0 -1.484375 0.703125 -2.28125q0.71875 -0.8125 2.03125 -0.8125q0.421875 0 0.84375 0.09375q0.421875 0.09375 0.671875 0.21875l-0.28125 0.75q-0.296875 -0.109375 -0.640625 -0.1875q-0.34375 -0.078125 -0.625 -0.078125q-1.78125 0 -1.78125 2.28125q0 1.09375 0.4375 1.671875q0.4375 0.578125 1.296875 0.578125q0.734375 0 1.5 -0.3125l0 0.78125q-0.59375 0.3125 -1.484375 0.3125zm5.213806 0q-1.3125 0 -2.0625 -0.796875q-0.75 -0.796875 -0.75 -2.203125q0 -1.421875 0.6875 -2.265625q0.703125 -0.84375 1.890625 -0.84375q1.109375 0 1.75 0.734375q0.640625 0.734375 0.640625 1.921875l0 0.5625l-4.046875 0q0.015625 1.03125 0.515625 1.578125q0.5 0.53125 1.40625 0.53125q0.953125 0 1.875 -0.390625l0 0.78125q-0.46875 0.21875 -0.890625 0.296875q-0.421875 0.09375 -1.015625 0.09375zm-0.25 -5.359375q-0.703125 0 -1.125 0.46875q-0.421875 0.453125 -0.5 1.28125l3.078125 0q0 -0.84375 -0.375 -1.296875q-0.375 -0.453125 -1.078125 -0.453125z" fill-rule="nonzero"></path><path fill="#000000" fill-opacity="0.0" d="m136.08954 398.78317l75.30708 0" fill-rule="nonzero"></path><path stroke="#000000" stroke-width="1.0" stroke-linejoin="round" stroke-linecap="butt" d="m136.08954 398.78317l69.30707 0" fill-rule="evenodd"></path><path fill="#000000" stroke="#000000" stroke-width="1.0" stroke-linecap="butt" d="m205.3966 400.4349l4.538101 -1.6517334l-4.538101 -1.6517334z" fill-rule="evenodd"></path><path fill="#000000" fill-opacity="0.0" d="m318.12173 398.78317l75.3071 0" fill-rule="nonzero"></path><path stroke="#000000" stroke-width="1.0" stroke-linejoin="round" stroke-linecap="butt" d="m318.12173 398.78317l69.3071 0" fill-rule="evenodd"></path><path fill="#000000" stroke="#000000" stroke-width="1.0" stroke-linecap="butt" d="m387.42883 400.4349l4.5381165 -1.6517334l-4.5381165 -1.6517334z" fill-rule="evenodd"></path></g></svg>

