<?xml version="1.0" standalone="yes"?>

<svg version="1.1" viewBox="0.0 0.0 960.0 720.0" fill="none" stroke="none" stroke-linecap="square" stroke-miterlimit="10" xmlns="http://www.w3.org/2000/svg" xmlns:xlink="http://www.w3.org/1999/xlink"><clipPath id="p.0"><path d="m0 0l960.0 0l0 720.0l-960.0 0l0 -720.0z" clip-rule="nonzero"></path></clipPath><g clip-path="url(#p.0)"><path fill="#000000" fill-opacity="0.0" d="m0 0l960.0 0l0 720.0l-960.0 0z" fill-rule="nonzero"></path><path fill="#000000" fill-opacity="0.0" d="m354.07874 278.05856l0 0c0 -22.62819 18.34378 -40.971954 40.971954 -40.971954l467.72543 0c10.866394 0 21.28778 4.316681 28.971497 12.000412c7.683777 7.683731 12.000427 18.105118 12.000427 28.971542l0 163.88287c0 22.628174 -18.34375 40.971954 -40.971924 40.971954l-467.72543 0c-22.628174 0 -40.971954 -18.34378 -40.971954 -40.971954z" fill-rule="nonzero"></path><path stroke="#000000" stroke-width="1.0" stroke-linejoin="round" stroke-linecap="butt" d="m354.07874 278.05856l0 0c0 -22.62819 18.34378 -40.971954 40.971954 -40.971954l467.72543 0c10.866394 0 21.28778 4.316681 28.971497 12.000412c7.683777 7.683731 12.000427 18.105118 12.000427 28.971542l0 163.88287c0 22.628174 -18.34375 40.971954 -40.971924 40.971954l-467.72543 0c-22.628174 0 -40.971954 -18.34378 -40.971954 -40.971954z" fill-rule="nonzero"></path><path fill="#000000" d="m388.71964 269.21002q0 3.25 -1.65625 5.125q-1.640625 1.859375 -4.578125 1.859375q-2.984375 0 -4.625 -1.828125q-1.625 -1.84375 -1.625 -5.171875q0 -3.3125 1.625 -5.140625q1.640625 -1.828125 4.65625 -1.828125q2.921875 0 4.5625 1.859375q1.640625 1.859375 1.640625 5.125zm-10.8125 0q0 2.75 1.171875 4.171875q1.171875 1.421875 3.40625 1.421875q2.265625 0 3.40625 -1.40625q1.15625 -1.421875 1.15625 -4.1875q0 -2.734375 -1.15625 -4.140625q-1.140625 -1.421875 -3.375 -1.421875q-2.265625 0 -3.4375 1.421875q-1.171875 1.421875 -1.171875 4.140625zm18.060913 6.984375q-0.984375 0 -1.8125 -0.359375q-0.8125 -0.375 -1.375 -1.140625l-0.109375 0q0.109375 0.890625 0.109375 1.6875l0 4.1875l-1.53125 0l0 -14.734375l1.25 0l0.203125 1.390625l0.078125 0q0.59375 -0.828125 1.375 -1.203125q0.796875 -0.375 1.8125 -0.375q2.03125 0 3.125 1.390625q1.09375 1.375 1.09375 3.875q0 2.5 -1.125 3.890625q-1.109375 1.390625 -3.09375 1.390625zm-0.21875 -9.234375q-1.5625 0 -2.265625 0.875q-0.6875 0.859375 -0.703125 2.734375l0 0.34375q0 2.140625 0.71875 3.0625q0.71875 0.921875 2.28125 0.921875q1.328125 0 2.0625 -1.0625q0.75 -1.0625 0.75 -2.9375q0 -1.90625 -0.75 -2.921875q-0.734375 -1.015625 -2.09375 -1.015625zm11.213654 9.234375q-2.25 0 -3.5625 -1.375q-1.296875 -1.375 -1.296875 -3.8125q0 -2.453125 1.203125 -3.90625q1.21875 -1.453125 3.265625 -1.453125q1.90625 0 3.015625 1.265625q1.125 1.25 1.125 3.3125l0 0.96875l-7.015625 0q0.046875 1.796875 0.90625 2.734375q0.859375 0.921875 2.421875 0.921875q1.640625 0 3.25 -0.6875l0 1.375q-0.8125 0.34375 -1.546875 0.5q-0.734375 0.15625 -1.765625 0.15625zm-0.40625 -9.25q-1.234375 0 -1.96875 0.796875q-0.71875 0.796875 -0.84375 2.203125l5.3125 0q0 -1.453125 -0.65625 -2.21875q-0.640625 -0.78125 -1.84375 -0.78125zm13.544952 9.0625l0 -6.578125q0 -1.25 -0.578125 -1.859375q-0.5625 -0.609375 -1.765625 -0.609375q-1.59375 0 -2.34375 0.875q-0.734375 0.859375 -0.734375 2.84375l0 5.328125l-1.53125 0l0 -10.171875l1.25 0l0.25 1.390625l0.0625 0q0.484375 -0.75 1.328125 -1.15625q0.859375 -0.421875 1.90625 -0.421875q1.84375 0 2.765625 0.890625q0.921875 0.890625 0.921875 2.828125l0 6.640625l-1.53125 0zm12.372498 -3.609375q0 1.796875 -1.296875 2.796875q-1.296875 1.0 -3.53125 1.0q-2.40625 0 -3.703125 -0.625l0 -1.515625q0.828125 0.34375 1.8125 0.546875q0.984375 0.203125 1.953125 0.203125q1.578125 0 2.375 -0.59375q0.796875 -0.59375 0.796875 -1.65625q0 -0.71875 -0.28125 -1.15625q-0.28125 -0.453125 -0.953125 -0.828125q-0.65625 -0.390625 -2.015625 -0.875q-1.890625 -0.671875 -2.703125 -1.59375q-0.8125 -0.9375 -0.8125 -2.421875q0 -1.578125 1.171875 -2.5q1.1875 -0.9375 3.125 -0.9375q2.03125 0 3.71875 0.75l-0.484375 1.375q-1.6875 -0.703125 -3.265625 -0.703125q-1.25 0 -1.96875 0.546875q-0.703125 0.53125 -0.703125 1.484375q0 0.703125 0.265625 1.15625q0.265625 0.4375 0.875 0.828125q0.625 0.375 1.890625 0.828125q2.125 0.75 2.921875 1.625q0.8125 0.875 0.8125 2.265625zm9.3172 3.609375l0 -6.578125q0 -1.25 -0.578125 -1.859375q-0.5625 -0.609375 -1.765625 -0.609375q-1.609375 0 -2.34375 0.875q-0.734375 0.875 -0.734375 2.859375l0 5.3125l-1.53125 0l0 -14.4375l1.53125 0l0 4.375q0 0.78125 -0.078125 1.296875l0.09375 0q0.453125 -0.71875 1.296875 -1.140625q0.84375 -0.421875 1.921875 -0.421875q1.859375 0 2.78125 0.890625q0.9375 0.875 0.9375 2.796875l0 6.640625l-1.53125 0zm6.028778 0l-1.53125 0l0 -10.171875l1.53125 0l0 10.171875zm-1.671875 -12.921875q0 -0.53125 0.25 -0.765625q0.265625 -0.25 0.65625 -0.25q0.375 0 0.640625 0.25q0.28125 0.25 0.28125 0.765625q0 0.515625 -0.28125 0.78125q-0.265625 0.25 -0.640625 0.25q-0.390625 0 -0.65625 -0.25q-0.25 -0.265625 -0.25 -0.78125zm9.4374695 3.953125l-2.59375 0l0 8.96875l-1.53125 0l0 -8.96875l-1.828125 0l0 -0.703125l1.828125 -0.546875l0 -0.578125q0 -3.734375 3.265625 -3.734375q0.8125 0 1.890625 0.3125l-0.390625 1.234375q-0.890625 -0.28125 -1.53125 -0.28125q-0.859375 0 -1.28125 0.578125q-0.421875 0.578125 -0.421875 1.859375l0 0.65625l2.59375 0l0 1.203125zm5.025116 7.890625q0.40625 0 0.78125 -0.0625q0.390625 -0.0625 0.609375 -0.125l0 1.171875q-0.25 0.125 -0.75 0.203125q-0.484375 0.078125 -0.875 0.078125q-2.9375 0 -2.9375 -3.109375l0 -6.046875l-1.46875 0l0 -0.75l1.46875 -0.640625l0.640625 -2.171875l0.890625 0l0 2.359375l2.953125 0l0 1.203125l-2.953125 0l0 5.984375q0 0.921875 0.4375 1.421875q0.4375 0.484375 1.203125 0.484375z" fill-rule="nonzero"></path><path fill="#f0e161" d="m56.25197 351.41257l0 0c0 -13.426147 10.884048 -24.310211 24.310196 -24.310211l149.48985 0c6.447464 0 12.630859 2.5612488 17.189896 7.1203003c4.5590515 4.5590515 7.1203003 10.742432 7.1203003 17.18991l0 97.237854c0 13.426147 -10.884048 24.310211 -24.310196 24.310211l-149.48985 0l0 0c-13.426147 0 -24.310196 -10.884064 -24.310196 -24.310211z" fill-rule="nonzero"></path><path stroke="#000000" stroke-width="1.0" stroke-linejoin="round" stroke-linecap="butt" d="m56.25197 351.41257l0 0c0 -13.426147 10.884048 -24.310211 24.310196 -24.310211l149.48985 0c6.447464 0 12.630859 2.5612488 17.189896 7.1203003c4.5590515 4.5590515 7.1203003 10.742432 7.1203003 17.18991l0 97.237854c0 13.426147 -10.884048 24.310211 -24.310196 24.310211l-149.48985 0l0 0c-13.426147 0 -24.310196 -10.884064 -24.310196 -24.310211z" fill-rule="nonzero"></path><path fill="#000000" d="m102.51412 352.86383l3.046875 -5.703125l1.4375 0l-3.8125 6.984375l0 4.4375l-1.34375 0l0 -4.375l-3.8125 -7.046875l1.453125 0l3.03125 5.703125zm13.2421875 1.421875q0 2.09375 -1.0625 3.28125q-1.046875 1.171875 -2.90625 1.171875q-1.140625 0 -2.03125 -0.53125q-0.890625 -0.546875 -1.375 -1.546875q-0.484375 -1.015625 -0.484375 -2.375q0 -2.09375 1.046875 -3.25q1.046875 -1.171875 2.90625 -1.171875q1.796875 0 2.84375 1.203125q1.0625 1.1875 1.0625 3.21875zm-6.515625 0q0 1.640625 0.65625 2.5q0.65625 0.859375 1.921875 0.859375q1.28125 0 1.9375 -0.84375q0.65625 -0.859375 0.65625 -2.515625q0 -1.625 -0.65625 -2.46875q-0.65625 -0.859375 -1.953125 -0.859375q-1.265625 0 -1.921875 0.84375q-0.640625 0.828125 -0.640625 2.484375zm10.0078125 -4.265625l0 5.546875q0 1.046875 0.46875 1.5625q0.484375 0.515625 1.5 0.515625q1.34375 0 1.96875 -0.734375q0.625 -0.734375 0.625 -2.390625l0 -4.5l1.296875 0l0 8.5625l-1.078125 0l-0.1875 -1.15625l-0.0625 0q-0.40625 0.640625 -1.109375 0.984375q-0.703125 0.328125 -1.609375 0.328125q-1.5625 0 -2.34375 -0.734375q-0.78125 -0.75 -0.78125 -2.390625l0 -5.59375l1.3125 0zm12.507805 -0.15625q0.578125 0 1.03125 0.09375l-0.1875 1.203125q-0.53125 -0.125 -0.9375 -0.125q-1.03125 0 -1.78125 0.84375q-0.734375 0.84375 -0.734375 2.109375l0 4.59375l-1.2968674 0l0 -8.5625l1.0781174 0l0.140625 1.578125l0.0625 0q0.484375 -0.828125 1.15625 -1.28125q0.671875 -0.453125 1.46875 -0.453125zm11.875 -1.6875q-1.890625 0 -2.984375 1.265625q-1.078125 1.25 -1.078125 3.421875q0 2.25 1.046875 3.46875q1.046875 1.21875 3.0 1.21875q1.1875 0 2.71875 -0.421875l0 1.15625q-1.1875 0.453125 -2.921875 0.453125q-2.53125 0 -3.90625 -1.53125q-1.359375 -1.53125 -1.359375 -4.359375q0 -1.765625 0.65625 -3.09375q0.65625 -1.328125 1.90625 -2.046875q1.25 -0.71875 2.9375 -0.71875q1.796875 0 3.140625 0.65625l-0.5625 1.140625q-1.296875 -0.609375 -2.59375 -0.609375zm12.390625 6.109375q0 2.09375 -1.0625 3.28125q-1.046875 1.171875 -2.90625 1.171875q-1.140625 0 -2.03125 -0.53125q-0.890625 -0.546875 -1.375 -1.546875q-0.484375 -1.015625 -0.484375 -2.375q0 -2.09375 1.046875 -3.25q1.046875 -1.171875 2.90625 -1.171875q1.796875 0 2.84375 1.203125q1.0625 1.1875 1.0625 3.21875zm-6.515625 0q0 1.640625 0.65625 2.5q0.65625 0.859375 1.921875 0.859375q1.28125 0 1.9375 -0.84375q0.65625 -0.859375 0.65625 -2.515625q0 -1.625 -0.65625 -2.46875q-0.65625 -0.859375 -1.953125 -0.859375q-1.265625 0 -1.921875 0.84375q-0.640625 0.828125 -0.640625 2.484375zm19.710938 4.296875l0 -5.578125q0 -1.015625 -0.4375 -1.53125q-0.4375 -0.515625 -1.359375 -0.515625q-1.21875 0 -1.796875 0.703125q-0.578125 0.6875 -0.578125 2.140625l0 4.78125l-1.296875 0l0 -5.578125q0 -1.015625 -0.4375 -1.53125q-0.4375 -0.515625 -1.359375 -0.515625q-1.21875 0 -1.796875 0.734375q-0.5625 0.734375 -0.5625 2.390625l0 4.5l-1.296875 0l0 -8.5625l1.0625 0l0.203125 1.171875l0.0625 0q0.375 -0.625 1.03125 -0.96875q0.671875 -0.359375 1.5 -0.359375q2.015625 0 2.625 1.453125l0.0625 0q0.390625 -0.671875 1.109375 -1.0625q0.734375 -0.390625 1.65625 -0.390625q1.453125 0 2.171875 0.75q0.734375 0.734375 0.734375 2.375l0 5.59375l-1.296875 0zm7.9453125 0.15625q-0.828125 0 -1.53125 -0.3125q-0.6875 -0.3125 -1.15625 -0.953125l-0.09375 0q0.09375 0.75 0.09375 1.4375l0 3.515625l-1.296875 0l0 -12.40625l1.0625 0l0.171875 1.171875l0.0625 0q0.5 -0.703125 1.15625 -1.015625q0.671875 -0.3125 1.53125 -0.3125q1.703125 0 2.625 1.171875q0.9375 1.15625 0.9375 3.25q0 2.109375 -0.953125 3.28125q-0.9375 1.171875 -2.609375 1.171875zm-0.1875 -7.78125q-1.3125 0 -1.90625 0.734375q-0.578125 0.71875 -0.59375 2.3125l0 0.28125q0 1.8125 0.59375 2.59375q0.609375 0.765625 1.9375 0.765625q1.109375 0 1.734375 -0.890625q0.640625 -0.90625 0.640625 -2.484375q0 -1.59375 -0.640625 -2.453125q-0.625 -0.859375 -1.765625 -0.859375zm7.2265625 -0.9375l0 5.546875q0 1.046875 0.46875 1.5625q0.484375 0.515625 1.5 0.515625q1.34375 0 1.96875 -0.734375q0.625 -0.734375 0.625 -2.390625l0 -4.5l1.296875 0l0 8.5625l-1.078125 0l-0.1875 -1.15625l-0.0625 0q-0.40625 0.640625 -1.109375 0.984375q-0.703125 0.328125 -1.609375 0.328125q-1.5625 0 -2.34375 -0.734375q-0.78125 -0.75 -0.78125 -2.390625l0 -5.59375l1.3125 0zm11.3671875 7.640625q0.34375 0 0.65625 -0.046875q0.328125 -0.046875 0.515625 -0.109375l0 1.0q-0.203125 0.109375 -0.625 0.171875q-0.40625 0.0625 -0.734375 0.0625q-2.484375 0 -2.484375 -2.625l0 -5.09375l-1.21875 0l0 -0.625l1.21875 -0.53125l0.546875 -1.828125l0.75 0l0 1.984375l2.484375 0l0 1.0l-2.484375 0l0 5.046875q0 0.765625 0.359375 1.1875q0.375 0.40625 1.015625 0.40625zm6.5078125 1.078125q-1.90625 0 -3.0 -1.15625q-1.09375 -1.15625 -1.09375 -3.21875q0 -2.0625 1.015625 -3.28125q1.015625 -1.21875 2.734375 -1.21875q1.609375 0 2.546875 1.0625q0.9375 1.046875 0.9375 2.78125l0 0.828125l-5.890625 0q0.03125 1.5 0.75 2.28125q0.734375 0.78125 2.046875 0.78125q1.375 0 2.734375 -0.578125l0 1.15625q-0.6875 0.296875 -1.3125 0.421875q-0.609375 0.140625 -1.46875 0.140625zm-0.359375 -7.796875q-1.03125 0 -1.640625 0.671875q-0.609375 0.671875 -0.71875 1.859375l4.46875 0q0 -1.21875 -0.546875 -1.875q-0.546875 -0.65625 -1.5625 -0.65625zm9.6171875 -1.078125q0.578125 0 1.03125 0.09375l-0.1875 1.203125q-0.53125 -0.125 -0.9375 -0.125q-1.03125 0 -1.78125 0.84375q-0.734375 0.84375 -0.734375 2.109375l0 4.59375l-1.296875 0l0 -8.5625l1.078125 0l0.140625 1.578125l0.0625 0q0.484375 -0.828125 1.15625 -1.28125q0.671875 -0.453125 1.46875 -0.453125z" fill-rule="nonzero"></path><path fill="#ebd52c" d="m65.632545 390.40973l0 0c0 -7.952484 6.446762 -14.399231 14.399239 -14.399231l148.46136 0c3.8189087 0 7.481415 1.5170593 10.181793 4.2174377c2.7003784 2.7003784 4.2174377 6.3628845 4.2174377 10.181793l0 57.595245c0 7.952484 -6.446747 14.399231 -14.399231 14.399231l-148.46136 0c-7.9524765 0 -14.399239 -6.446747 -14.399239 -14.399231z" fill-rule="nonzero"></path><path stroke="#000000" stroke-width="1.0" stroke-linejoin="round" stroke-linecap="butt" d="m65.632545 390.40973l0 0c0 -7.952484 6.446762 -14.399231 14.399239 -14.399231l148.46136 0c3.8189087 0 7.481415 1.5170593 10.181793 4.2174377c2.7003784 2.7003784 4.2174377 6.3628845 4.2174377 10.181793l0 57.595245c0 7.952484 -6.446747 14.399231 -14.399231 14.399231l-148.46136 0c-7.9524765 0 -14.399239 -6.446747 -14.399239 -14.399231z" fill-rule="nonzero"></path><path fill="#000000" d="m144.94215 404.5879l-1.328125 0l0 -5.375l-6.015625 0l0 5.375l-1.328125 0l0 -11.421875l1.328125 0l0 4.859375l6.015625 0l0 -4.859375l1.328125 0l0 11.421875zm6.6484375 0l-1.328125 0l0 -10.25l-3.625 0l0 -1.171875l8.5625 0l0 1.171875l-3.609375 0l0 10.25zm8.8515625 0l-1.328125 0l0 -10.25l-3.625 0l0 -1.171875l8.5625 0l0 1.171875l-3.609375 0l0 10.25zm12.5703125 -8.09375q0 1.734375 -1.1875 2.671875q-1.171875 0.921875 -3.375 0.921875l-1.34375 0l0 4.5l-1.328125 0l0 -11.421875l2.953125 0q4.28125 0 4.28125 3.328125zm-5.90625 2.453125l1.1875 0q1.765625 0 2.546875 -0.5625q0.796875 -0.578125 0.796875 -1.828125q0 -1.140625 -0.75 -1.6875q-0.734375 -0.5625 -2.296875 -0.5625l-1.484375 0l0 4.640625z" fill-rule="nonzero"></path><path fill="#f7ee9a" d="m103.60105 417.86893l0 0c0 -4.038574 3.2739105 -7.3125 7.3124847 -7.3125l86.69787 0c1.9393921 0 3.799347 0.77041626 5.1707 2.1417847c1.3713684 1.3713379 2.1417847 3.2313232 2.1417847 5.1707153l0 29.249023c0 4.038574 -3.2739105 7.3125 -7.3124847 7.3125l-86.69787 0c-4.038574 0 -7.3124847 -3.2739258 -7.3124847 -7.3125z" fill-rule="nonzero"></path><path stroke="#000000" stroke-width="1.0" stroke-linejoin="round" stroke-linecap="butt" d="m103.60105 417.86893l0 0c0 -4.038574 3.2739105 -7.3125 7.3124847 -7.3125l86.69787 0c1.9393921 0 3.799347 0.77041626 5.1707 2.1417847c1.3713684 1.3713379 2.1417847 3.2313232 2.1417847 5.1707153l0 29.249023c0 4.038574 -3.2739105 7.3125 -7.3124847 7.3125l-86.69787 0c-4.038574 0 -7.3124847 -3.2739258 -7.3124847 -7.3125z" fill-rule="nonzero"></path><path fill="#000000" d="m128.68465 420.8403q-1.53125 0 -2.421875 1.03125q-0.875 1.015625 -0.875 2.78125q0 1.828125 0.84375 2.828125q0.859375 0.984375 2.4375 0.984375q0.96875 0 2.21875 -0.359375l0 0.953125q-0.96875 0.359375 -2.375 0.359375q-2.0625 0 -3.171875 -1.234375q-1.109375 -1.25 -1.109375 -3.546875q0 -1.4375 0.53125 -2.515625q0.53125 -1.078125 1.546875 -1.65625q1.015625 -0.578125 2.390625 -0.578125q1.453125 0 2.546875 0.53125l-0.453125 0.921875q-1.0625 -0.5 -2.109375 -0.5zm4.4394226 8.453125l0 -9.28125l1.078125 0l0 8.296875l4.09375 0l0 0.984375l-5.171875 0zm6.917877 0l0 -9.28125l1.078125 0l0 9.28125l-1.078125 0zm8.521942 -7.4375q0 0.4375 0.21875 0.84375q0.234375 0.390625 0.796875 0.953125q0.8125 -0.484375 1.125 -0.875q0.328125 -0.40625 0.328125 -0.9375q0 -0.484375 -0.328125 -0.796875q-0.328125 -0.3125 -0.875 -0.3125q-0.5625 0 -0.921875 0.3125q-0.34375 0.296875 -0.34375 0.8125zm0.984375 6.625q1.53125 0 2.546875 -0.984375l-2.78125 -2.6875q-0.703125 0.421875 -1.0 0.71875q-0.28125 0.28125 -0.421875 0.609375q-0.140625 0.3125 -0.140625 0.71875q0 0.75 0.484375 1.1875q0.5 0.4375 1.3125 0.4375zm-2.890625 -1.59375q0 -0.828125 0.4375 -1.453125q0.4375 -0.640625 1.59375 -1.28125q-0.546875 -0.609375 -0.75 -0.921875q-0.1875 -0.3125 -0.296875 -0.640625q-0.109375 -0.34375 -0.109375 -0.703125q0 -0.953125 0.609375 -1.484375q0.625 -0.53125 1.734375 -0.53125q1.03125 0 1.625 0.53125q0.59375 0.53125 0.59375 1.46875q0 0.6875 -0.4375 1.265625q-0.4375 0.5625 -1.421875 1.15625l2.578125 2.484375q0.359375 -0.390625 0.5625 -0.921875q0.21875 -0.53125 0.359375 -1.171875l1.078125 0q-0.4375 1.828125 -1.3125 2.765625l1.90625 1.84375l-1.453125 0l-1.171875 -1.125q-0.75 0.671875 -1.53125 0.96875q-0.78125 0.28125 -1.71875 0.28125q-1.375 0 -2.125 -0.671875q-0.75 -0.671875 -0.75 -1.859375zm20.753967 -6.875l0 6.0q0 1.59375 -0.96875 2.5q-0.953125 0.90625 -2.625 0.90625q-1.671875 0 -2.59375 -0.90625q-0.90625 -0.921875 -0.90625 -2.515625l0 -5.984375l1.078125 0l0 6.0625q0 1.15625 0.625 1.78125q0.640625 0.625 1.875 0.625q1.171875 0 1.796875 -0.625q0.640625 -0.625 0.640625 -1.796875l0 -6.046875l1.078125 0zm7.296997 9.28125l0 -4.5q0 -0.84375 -0.390625 -1.265625q-0.375 -0.421875 -1.203125 -0.421875q-1.09375 0 -1.609375 0.59375q-0.5 0.578125 -0.5 1.9375l0 3.65625l-1.046875 0l0 -6.953125l0.84375 0l0.171875 0.953125l0.0625 0q0.3125 -0.515625 0.890625 -0.796875q0.59375 -0.28125 1.3125 -0.28125q1.25 0 1.890625 0.609375q0.640625 0.59375 0.640625 1.9375l0 4.53125l-1.0625 0zm4.4772797 0l-1.046875 0l0 -6.953125l1.046875 0l0 6.953125zm-1.140625 -8.84375q0 -0.359375 0.171875 -0.53125q0.1875 -0.171875 0.453125 -0.171875q0.25 0 0.421875 0.171875q0.1875 0.171875 0.1875 0.53125q0 0.359375 -0.1875 0.53125q-0.171875 0.171875 -0.421875 0.171875q-0.265625 0 -0.453125 -0.171875q-0.171875 -0.171875 -0.171875 -0.53125zm5.6992035 8.09375q0.28125 0 0.546875 -0.03125q0.265625 -0.046875 0.40625 -0.09375l0 0.8125q-0.171875 0.078125 -0.5 0.125q-0.328125 0.0625 -0.59375 0.0625q-2.03125 0 -2.03125 -2.125l0 -4.140625l-0.984375 0l0 -0.5l0.984375 -0.4375l0.453125 -1.484375l0.609375 0l0 1.609375l2.015625 0l0 0.8125l-2.015625 0l0 4.09375q0 0.625 0.296875 0.96875q0.296875 0.328125 0.8125 0.328125z" fill-rule="nonzero"></path><path fill="#000000" d="m142.25117 445.29343l-1.078125 0l0 -8.328125l-2.9375 0l0 -0.953125l6.96875 0l0 0.953125l-2.953125 0l0 8.328125zm7.3109283 0.125q-1.546875 0 -2.4375 -0.9375q-0.890625 -0.9375 -0.890625 -2.609375q0 -1.6875 0.828125 -2.671875q0.828125 -0.984375 2.21875 -0.984375q1.3125 0 2.0625 0.859375q0.765625 0.859375 0.765625 2.265625l0 0.671875l-4.78125 0q0.03125 1.21875 0.609375 1.859375q0.59375 0.625 1.65625 0.625q1.125 0 2.21875 -0.46875l0 0.9375q-0.5625 0.25 -1.0625 0.34375q-0.484375 0.109375 -1.1875 0.109375zm-0.296875 -6.328125q-0.828125 0 -1.328125 0.546875q-0.5 0.546875 -0.59375 1.515625l3.640625 0q0 -1.0 -0.453125 -1.53125q-0.4375 -0.53125 -1.265625 -0.53125zm9.321304 4.3125q0 0.96875 -0.734375 1.5q-0.71875 0.515625 -2.03125 0.515625q-1.375 0 -2.15625 -0.4375l0 -0.96875q0.5 0.25 1.078125 0.390625q0.578125 0.140625 1.109375 0.140625q0.828125 0 1.265625 -0.25q0.453125 -0.265625 0.453125 -0.8125q0 -0.40625 -0.359375 -0.6875q-0.34375 -0.296875 -1.375 -0.6875q-0.96875 -0.359375 -1.375 -0.625q-0.40625 -0.28125 -0.609375 -0.625q-0.203125 -0.34375 -0.203125 -0.8125q0 -0.84375 0.6875 -1.328125q0.703125 -0.5 1.90625 -0.5q1.125 0 2.1875 0.453125l-0.375 0.859375q-1.046875 -0.4375 -1.890625 -0.4375q-0.75 0 -1.140625 0.234375q-0.375 0.234375 -0.375 0.65625q0 0.265625 0.140625 0.46875q0.15625 0.203125 0.46875 0.375q0.3125 0.171875 1.21875 0.515625q1.234375 0.453125 1.671875 0.90625q0.4375 0.453125 0.4375 1.15625zm4.1082 1.140625q0.28125 0 0.546875 -0.03125q0.265625 -0.046875 0.40625 -0.09375l0 0.8125q-0.171875 0.078125 -0.5 0.125q-0.328125 0.0625 -0.59375 0.0625q-2.03125 0 -2.03125 -2.125l0 -4.140625l-0.984375 0l0 -0.5l0.984375 -0.4375l0.453125 -1.484375l0.609375 0l0 1.609375l2.015625 0l0 0.8125l-2.015625 0l0 4.09375q0 0.625 0.296875 0.96875q0.296875 0.328125 0.8125 0.328125zm6.9552 -1.140625q0 0.96875 -0.734375 1.5q-0.71875 0.515625 -2.03125 0.515625q-1.375 0 -2.15625 -0.4375l0 -0.96875q0.5 0.25 1.078125 0.390625q0.578125 0.140625 1.109375 0.140625q0.828125 0 1.265625 -0.25q0.453125 -0.265625 0.453125 -0.8125q0 -0.40625 -0.359375 -0.6875q-0.34375 -0.296875 -1.375 -0.6875q-0.96875 -0.359375 -1.375 -0.625q-0.40625 -0.28125 -0.609375 -0.625q-0.203125 -0.34375 -0.203125 -0.8125q0 -0.84375 0.6875 -1.328125q0.703125 -0.5 1.90625 -0.5q1.125 0 2.1875 0.453125l-0.375 0.859375q-1.046875 -0.4375 -1.890625 -0.4375q-0.75 0 -1.140625 0.234375q-0.375 0.234375 -0.375 0.65625q0 0.265625 0.140625 0.46875q0.15625 0.203125 0.46875 0.375q0.3125 0.171875 1.21875 0.515625q1.234375 0.453125 1.671875 0.90625q0.4375 0.453125 0.4375 1.15625z" fill-rule="nonzero"></path><path fill="#9bb7db" d="m364.2362 351.41257l0 0c0 -13.426147 10.884064 -24.310211 24.310211 -24.310211l481.1749 0c6.4474487 0 12.630859 2.5612488 17.18988 7.1203003c4.559082 4.5590515 7.1203003 10.742432 7.1203003 17.18991l0 97.237854c0 13.426147 -10.884033 24.310211 -24.31018 24.310211l-481.1749 0c-13.426147 0 -24.310211 -10.884064 -24.310211 -24.310211z" fill-rule="nonzero"></path><path stroke="#000000" stroke-width="1.0" stroke-linejoin="round" stroke-linecap="butt" d="m364.2362 351.41257l0 0c0 -13.426147 10.884064 -24.310211 24.310211 -24.310211l481.1749 0c6.4474487 0 12.630859 2.5612488 17.18988 7.1203003c4.559082 4.5590515 7.1203003 10.742432 7.1203003 17.18991l0 97.237854c0 13.426147 -10.884033 24.310211 -24.31018 24.310211l-481.1749 0c-13.426147 0 -24.310211 -10.884064 -24.310211 -24.310211z" fill-rule="nonzero"></path><path fill="#000000" d="m566.50104 352.8482q0 2.75 -1.390625 4.328125q-1.375 1.5625 -3.84375 1.5625q-2.53125 0 -3.90625 -1.546875q-1.359375 -1.546875 -1.359375 -4.359375q0 -2.78125 1.375 -4.3125q1.375 -1.546875 3.90625 -1.546875q2.453125 0 3.828125 1.5625q1.390625 1.5625 1.390625 4.3125zm-9.09375 0q0 2.328125 0.984375 3.53125q0.984375 1.1875 2.875 1.1875q1.890625 0 2.859375 -1.1875q0.96875 -1.203125 0.96875 -3.53125q0 -2.296875 -0.96875 -3.484375q-0.953125 -1.203125 -2.84375 -1.203125q-1.90625 0 -2.890625 1.203125q-0.984375 1.203125 -0.984375 3.484375zm15.4296875 5.890625q-0.828125 0 -1.53125 -0.3125q-0.6875 -0.3125 -1.15625 -0.953125l-0.09375 0q0.09375 0.75 0.09375 1.4375l0 3.515625l-1.296875 0l0 -12.40625l1.0625 0l0.171875 1.171875l0.0625 0q0.5 -0.703125 1.15625 -1.015625q0.671875 -0.3125 1.53125 -0.3125q1.703125 0 2.625 1.171875q0.9375 1.15625 0.9375 3.25q0 2.109375 -0.953125 3.28125q-0.9375 1.171875 -2.609375 1.171875zm-0.1875 -7.78125q-1.3125 0 -1.90625 0.734375q-0.578125 0.71875 -0.59375 2.3125l0 0.28125q0 1.8125 0.59375 2.59375q0.609375 0.765625 1.9375 0.765625q1.109375 0 1.734375 -0.890625q0.640625 -0.90625 0.640625 -2.484375q0 -1.59375 -0.640625 -2.453125q-0.625 -0.859375 -1.765625 -0.859375zm9.6328125 7.78125q-1.90625 0 -3.0 -1.15625q-1.09375 -1.15625 -1.09375 -3.21875q0 -2.0625 1.015625 -3.28125q1.015625 -1.21875 2.734375 -1.21875q1.609375 0 2.546875 1.0625q0.9375 1.046875 0.9375 2.78125l0 0.828125l-5.890625 0q0.03125 1.5 0.75 2.28125q0.734375 0.78125 2.046875 0.78125q1.375 0 2.734375 -0.578125l0 1.15625q-0.6875 0.296875 -1.3125 0.421875q-0.609375 0.140625 -1.46875 0.140625zm-0.359375 -7.796875q-1.03125 0 -1.640625 0.671875q-0.609375 0.671875 -0.71875 1.859375l4.46875 0q0 -1.21875 -0.546875 -1.875q-0.546875 -0.65625 -1.5625 -0.65625zm11.5703125 7.640625l0 -5.546875q0 -1.046875 -0.484375 -1.5625q-0.46875 -0.515625 -1.484375 -0.515625q-1.34375 0 -1.96875 0.734375q-0.625 0.71875 -0.625 2.390625l0 4.5l-1.296875 0l0 -8.5625l1.0625 0l0.203125 1.171875l0.0625 0q0.40625 -0.640625 1.125 -0.984375q0.71875 -0.34375 1.59375 -0.34375q1.546875 0 2.328125 0.75q0.78125 0.734375 0.78125 2.375l0 5.59375l-1.296875 0zm10.6015625 -3.046875q0 1.515625 -1.09375 2.359375q-1.09375 0.84375 -2.96875 0.84375q-2.03125 0 -3.125 -0.53125l0 -1.28125q0.703125 0.296875 1.53125 0.46875q0.828125 0.171875 1.640625 0.171875q1.328125 0 2.0 -0.5q0.671875 -0.5 0.671875 -1.40625q0 -0.59375 -0.234375 -0.96875q-0.234375 -0.375 -0.796875 -0.6875q-0.5625 -0.328125 -1.703125 -0.734375q-1.59375 -0.578125 -2.28125 -1.359375q-0.671875 -0.78125 -0.671875 -2.03125q0 -1.328125 0.984375 -2.109375q1.0 -0.78125 2.625 -0.78125q1.703125 0 3.140625 0.625l-0.421875 1.15625q-1.40625 -0.59375 -2.75 -0.59375q-1.046875 0 -1.640625 0.453125q-0.59375 0.453125 -0.59375 1.265625q0 0.59375 0.21875 0.96875q0.21875 0.375 0.734375 0.703125q0.515625 0.3125 1.59375 0.6875q1.796875 0.640625 2.46875 1.375q0.671875 0.734375 0.671875 1.90625zm8.0 3.046875l0 -5.546875q0 -1.046875 -0.484375 -1.5625q-0.46875 -0.515625 -1.484375 -0.515625q-1.34375 0 -1.96875 0.734375q-0.625 0.734375 -0.625 2.40625l0 4.484375l-1.296875 0l0 -12.15625l1.296875 0l0 3.671875q0 0.671875 -0.0625 1.109375l0.078125 0q0.390625 -0.625 1.09375 -0.96875q0.703125 -0.359375 1.609375 -0.359375q1.578125 0 2.359375 0.75q0.78125 0.734375 0.78125 2.359375l0 5.59375l-1.296875 0zm5.2578125 0l-1.296875 0l0 -8.5625l1.296875 0l0 8.5625zm-1.40625 -10.890625q0 -0.4375 0.21875 -0.640625q0.21875 -0.21875 0.546875 -0.21875q0.3125 0 0.53125 0.21875q0.234375 0.203125 0.234375 0.640625q0 0.4375 -0.234375 0.65625q-0.21875 0.21875 -0.53125 0.21875q-0.328125 0 -0.546875 -0.21875q-0.21875 -0.21875 -0.21875 -0.65625zm8.015625 3.328125l-2.171875 0l0 7.5625l-1.296875 0l0 -7.5625l-1.53125 0l0 -0.578125l1.53125 -0.46875l0 -0.484375q0 -3.15625 2.75 -3.15625q0.6875 0 1.59375 0.28125l-0.328125 1.03125q-0.75 -0.234375 -1.28125 -0.234375q-0.734375 0 -1.09375 0.484375q-0.34375 0.484375 -0.34375 1.5625l0 0.5625l2.171875 0l0 1.0zm4.328125 6.640625q0.34375 0 0.65625 -0.046875q0.328125 -0.046875 0.515625 -0.109375l0 1.0q-0.203125 0.109375 -0.625 0.171875q-0.40625 0.0625 -0.734375 0.0625q-2.484375 0 -2.484375 -2.625l0 -5.09375l-1.21875 0l0 -0.625l1.21875 -0.53125l0.546875 -1.828125l0.75 0l0 1.984375l2.484375 0l0 1.0l-2.484375 0l0 5.046875q0 0.765625 0.359375 1.1875q0.375 0.40625 1.015625 0.40625zm12.1328125 -9.484375q-1.890625 0 -2.984375 1.265625q-1.078125 1.25 -1.078125 3.421875q0 2.25 1.046875 3.46875q1.046875 1.21875 3.0 1.21875q1.1875 0 2.71875 -0.421875l0 1.15625q-1.1875 0.453125 -2.921875 0.453125q-2.53125 0 -3.90625 -1.53125q-1.359375 -1.53125 -1.359375 -4.359375q0 -1.765625 0.65625 -3.09375q0.65625 -1.328125 1.90625 -2.046875q1.25 -0.71875 2.9375 -0.71875q1.796875 0 3.140625 0.65625l-0.5625 1.140625q-1.296875 -0.609375 -2.59375 -0.609375zm10.265625 10.40625l-0.25 -1.21875l-0.0625 0q-0.640625 0.796875 -1.28125 1.09375q-0.640625 0.28125 -1.59375 0.28125q-1.265625 0 -2.0 -0.65625q-0.71875 -0.65625 -0.71875 -1.875q0 -2.59375 4.15625 -2.71875l1.453125 -0.046875l0 -0.53125q0 -1.0 -0.4375 -1.484375q-0.4375 -0.484375 -1.390625 -0.484375q-1.0625 0 -2.421875 0.65625l-0.390625 -0.984375q0.625 -0.34375 1.375 -0.53125q0.765625 -0.203125 1.515625 -0.203125q1.53125 0 2.265625 0.6875q0.75 0.671875 0.75 2.171875l0 5.84375l-0.96875 0zm-2.921875 -0.921875q1.203125 0 1.890625 -0.65625q0.703125 -0.671875 0.703125 -1.859375l0 -0.78125l-1.296875 0.0625q-1.546875 0.046875 -2.234375 0.484375q-0.6875 0.421875 -0.6875 1.3125q0 0.703125 0.421875 1.078125q0.4375 0.359375 1.203125 0.359375zm10.4609375 -7.796875q0.578125 0 1.03125 0.09375l-0.1875 1.203125q-0.53125 -0.125 -0.9375 -0.125q-1.03125 0 -1.78125 0.84375q-0.734375 0.84375 -0.734375 2.109375l0 4.59375l-1.296875 0l0 -8.5625l1.078125 0l0.140625 1.578125l0.0625 0q0.484375 -0.828125 1.15625 -1.28125q0.671875 -0.453125 1.46875 -0.453125zm5.390625 7.796875q0.34375 0 0.65625 -0.046875q0.328125 -0.046875 0.515625 -0.109375l0 1.0q-0.203125 0.109375 -0.625 0.171875q-0.40625 0.0625 -0.734375 0.0625q-2.484375 0 -2.484375 -2.625l0 -5.09375l-1.21875 0l0 -0.625l1.21875 -0.53125l0.546875 -1.828125l0.75 0l0 1.984375l2.484375 0l0 1.0l-2.484375 0l0 5.046875q0 0.765625 0.359375 1.1875q0.375 0.40625 1.015625 0.40625zm6.7890625 -7.796875q0.578125 0 1.03125 0.09375l-0.1875 1.203125q-0.53125 -0.125 -0.9375 -0.125q-1.03125 0 -1.78125 0.84375q-0.734375 0.84375 -0.734375 2.109375l0 4.59375l-1.296875 0l0 -8.5625l1.078125 0l0.140625 1.578125l0.0625 0q0.484375 -0.828125 1.15625 -1.28125q0.671875 -0.453125 1.46875 -0.453125zm3.921875 8.71875l-1.296875 0l0 -8.5625l1.296875 0l0 8.5625zm-1.40625 -10.890625q0 -0.4375 0.21875 -0.640625q0.21875 -0.21875 0.546875 -0.21875q0.3125 0 0.53125 0.21875q0.234375 0.203125 0.234375 0.640625q0 0.4375 -0.234375 0.65625q-0.21875 0.21875 -0.53125 0.21875q-0.328125 0 -0.546875 -0.21875q-0.21875 -0.21875 -0.21875 -0.65625zm9.984375 9.734375l-0.0625 0q-0.90625 1.3125 -2.6875 1.3125q-1.6875 0 -2.625 -1.140625q-0.921875 -1.15625 -0.921875 -3.28125q0 -2.109375 0.9375 -3.28125q0.9375 -1.171875 2.609375 -1.171875q1.734375 0 2.671875 1.265625l0.09375 0l-0.046875 -0.625l-0.03125 -0.59375l0 -3.484375l1.296875 0l0 12.15625l-1.0625 0l-0.171875 -1.15625zm-2.59375 0.21875q1.328125 0 1.921875 -0.71875q0.609375 -0.71875 0.609375 -2.328125l0 -0.28125q0 -1.8125 -0.609375 -2.59375q-0.609375 -0.78125 -1.9375 -0.78125q-1.140625 0 -1.75 0.890625q-0.59375 0.890625 -0.59375 2.5q0 1.640625 0.59375 2.484375q0.609375 0.828125 1.765625 0.828125zm13.5859375 -7.625l0 0.8125l-1.59375 0.1875q0.21875 0.28125 0.390625 0.71875q0.171875 0.4375 0.171875 1.0q0 1.25 -0.859375 2.0q-0.859375 0.75 -2.359375 0.75q-0.375 0 -0.71875 -0.0625q-0.828125 0.4375 -0.828125 1.109375q0 0.34375 0.28125 0.515625q0.296875 0.171875 1.0 0.171875l1.515625 0q1.390625 0 2.140625 0.59375q0.75 0.578125 0.75 1.703125q0 1.421875 -1.140625 2.15625q-1.140625 0.75 -3.328125 0.75q-1.6875 0 -2.59375 -0.625q-0.90625 -0.625 -0.90625 -1.765625q0 -0.78125 0.5 -1.359375q0.5 -0.5625 1.40625 -0.765625q-0.328125 -0.15625 -0.5625 -0.46875q-0.21875 -0.3125 -0.21875 -0.71875q0 -0.46875 0.25 -0.8125q0.25 -0.359375 0.796875 -0.6875q-0.671875 -0.28125 -1.09375 -0.9375q-0.40625 -0.65625 -0.40625 -1.5q0 -1.40625 0.84375 -2.15625q0.84375 -0.765625 2.390625 -0.765625q0.671875 0 1.203125 0.15625l2.96875 0zm-6.828125 10.0q0 0.703125 0.578125 1.0625q0.59375 0.359375 1.6875 0.359375q1.625 0 2.40625 -0.5q0.796875 -0.484375 0.796875 -1.3125q0 -0.703125 -0.4375 -0.984375q-0.421875 -0.265625 -1.609375 -0.265625l-1.5625 0q-0.875 0 -1.375 0.421875q-0.484375 0.4375 -0.484375 1.21875zm0.703125 -7.265625q0 0.90625 0.5 1.375q0.515625 0.453125 1.421875 0.453125q1.890625 0 1.890625 -1.84375q0 -1.9375 -1.921875 -1.9375q-0.90625 0 -1.40625 0.5q-0.484375 0.484375 -0.484375 1.453125zm11.5 5.984375q-1.90625 0 -3.0 -1.15625q-1.09375 -1.15625 -1.09375 -3.21875q0 -2.0625 1.015625 -3.28125q1.015625 -1.21875 2.734375 -1.21875q1.609375 0 2.546875 1.0625q0.9375 1.046875 0.9375 2.78125l0 0.828125l-5.890625 0q0.03125 1.5 0.75 2.28125q0.734375 0.78125 2.046875 0.78125q1.375 0 2.734375 -0.578125l0 1.15625q-0.6875 0.296875 -1.3125 0.421875q-0.609375 0.140625 -1.46875 0.140625zm-0.359375 -7.796875q-1.03125 0 -1.640625 0.671875q-0.609375 0.671875 -0.71875 1.859375l4.46875 0q0 -1.21875 -0.546875 -1.875q-0.546875 -0.65625 -1.5625 -0.65625z" fill-rule="nonzero"></path><path fill="#779bcc" d="m375.24408 387.3914l0 0c0 -8.285889 6.717041 -15.00293 15.00293 -15.00293l477.77368 0c3.979065 0 7.795105 1.580658 10.608704 4.3942566c2.8135986 2.8135986 4.394226 6.6296387 4.394226 10.608673l0 60.009888c0 8.285889 -6.717041 15.00293 -15.00293 15.00293l-477.77368 0c-8.285889 0 -15.00293 -6.717041 -15.00293 -15.00293z" fill-rule="nonzero"></path><path stroke="#000000" stroke-width="1.0" stroke-linejoin="round" stroke-linecap="butt" d="m375.24408 387.3914l0 0c0 -8.285889 6.717041 -15.00293 15.00293 -15.00293l477.77368 0c3.979065 0 7.795105 1.580658 10.608704 4.3942566c2.8135986 2.8135986 4.394226 6.6296387 4.394226 10.608673l0 60.009888c0 8.285889 -6.717041 15.00293 -15.00293 15.00293l-477.77368 0c-8.285889 0 -15.00293 -6.717041 -15.00293 -15.00293z" fill-rule="nonzero"></path><path fill="#000000" d="m539.4307 404.1583q-0.734375 0 -1.15625 -0.21875l0 -1.125q0.546875 0.15625 1.15625 0.15625q0.78125 0 1.171875 -0.46875q0.40625 -0.46875 0.40625 -1.359375l0 -11.421875l1.328125 0l0 11.3125q0 1.484375 -0.75 2.296875q-0.75 0.828125 -2.15625 0.828125zm5.9453125 -14.4375l3.21875 0q2.28125 0 3.296875 0.6875q1.015625 0.671875 1.015625 2.140625q0 1.015625 -0.578125 1.671875q-0.5625 0.65625 -1.640625 0.859375l0 0.078125q2.59375 0.4375 2.59375 2.734375q0 1.53125 -1.03125 2.390625q-1.03125 0.859375 -2.890625 0.859375l-3.984375 0l0 -11.421875zm1.328125 4.890625l2.1875 0q1.40625 0 2.015625 -0.4375q0.625 -0.453125 0.625 -1.5q0 -0.953125 -0.6875 -1.375q-0.6875 -0.4375 -2.1875 -0.4375l-1.953125 0l0 3.75zm0 1.125l0 4.265625l2.375 0q1.390625 0 2.078125 -0.53125q0.703125 -0.53125 0.703125 -1.671875q0 -1.0625 -0.71875 -1.5625q-0.703125 -0.5 -2.171875 -0.5l-2.265625 0zm16.226562 1.109375q0 2.09375 -1.0625 3.28125q-1.046875 1.171875 -2.90625 1.171875q-1.140625 0 -2.03125 -0.53125q-0.890625 -0.546875 -1.375 -1.546875q-0.484375 -1.015625 -0.484375 -2.375q0 -2.09375 1.046875 -3.25q1.046875 -1.171875 2.90625 -1.171875q1.796875 0 2.84375 1.203125q1.0625 1.1875 1.0625 3.21875zm-6.515625 0q0 1.640625 0.65625 2.5q0.65625 0.859375 1.921875 0.859375q1.28125 0 1.9375 -0.84375q0.65625 -0.859375 0.65625 -2.515625q0 -1.625 -0.65625 -2.46875q-0.65625 -0.859375 -1.953125 -0.859375q-1.265625 0 -1.921875 0.84375q-0.640625 0.828125 -0.640625 2.484375zm14.3203125 1.953125q0 1.203125 -0.890625 1.859375q-0.890625 0.640625 -2.5 0.640625q-1.703125 0 -2.65625 -0.546875l0 -1.203125q0.609375 0.3125 1.3125 0.5q0.71875 0.171875 1.375 0.171875q1.015625 0 1.5625 -0.3125q0.546875 -0.328125 0.546875 -1.0q0 -0.5 -0.4375 -0.84375q-0.4375 -0.359375 -1.6875 -0.84375q-1.203125 -0.453125 -1.703125 -0.78125q-0.5 -0.328125 -0.75 -0.75q-0.25 -0.421875 -0.25 -1.015625q0 -1.046875 0.84375 -1.640625q0.859375 -0.609375 2.34375 -0.609375q1.390625 0 2.703125 0.5625l-0.453125 1.046875q-1.296875 -0.53125 -2.34375 -0.53125q-0.921875 0 -1.390625 0.296875q-0.46875 0.28125 -0.46875 0.796875q0 0.34375 0.171875 0.59375q0.1875 0.234375 0.578125 0.453125q0.390625 0.21875 1.5 0.625q1.515625 0.5625 2.046875 1.125q0.546875 0.5625 0.546875 1.40625zm7.6328125 0q0 1.203125 -0.890625 1.859375q-0.890625 0.640625 -2.5 0.640625q-1.703125 0 -2.65625 -0.546875l0 -1.203125q0.609375 0.3125 1.3125 0.5q0.71875 0.171875 1.375 0.171875q1.015625 0 1.5625 -0.3125q0.546875 -0.328125 0.546875 -1.0q0 -0.5 -0.4375 -0.84375q-0.4375 -0.359375 -1.6875 -0.84375q-1.203125 -0.453125 -1.703125 -0.78125q-0.5 -0.328125 -0.75 -0.75q-0.25 -0.421875 -0.25 -1.015625q0 -1.046875 0.84375 -1.640625q0.859375 -0.609375 2.34375 -0.609375q1.390625 0 2.703125 0.5625l-0.453125 1.046875q-1.296875 -0.53125 -2.34375 -0.53125q-0.921875 0 -1.390625 0.296875q-0.46875 0.28125 -0.46875 0.796875q0 0.34375 0.171875 0.59375q0.1875 0.234375 0.578125 0.453125q0.390625 0.21875 1.5 0.625q1.515625 0.5625 2.046875 1.125q0.546875 0.5625 0.546875 1.40625zm13.6328125 2.34375l-1.421875 -3.640625l-4.578125 0l-1.40625 3.640625l-1.34375 0l4.515625 -11.46875l1.125 0l4.484375 11.46875l-1.375 0zm-1.828125 -4.828125l-1.328125 -3.546875q-0.265625 -0.671875 -0.53125 -1.640625q-0.171875 0.75 -0.5 1.640625l-1.34375 3.546875l3.703125 0zm8.5625 4.984375q-0.828125 0 -1.53125 -0.3125q-0.6875 -0.3125 -1.15625 -0.953125l-0.09375 0q0.09375 0.75 0.09375 1.4375l0 3.515625l-1.296875 0l0 -12.40625l1.0625 0l0.171875 1.171875l0.0625 0q0.5 -0.703125 1.15625 -1.015625q0.671875 -0.3125 1.53125 -0.3125q1.703125 0 2.625 1.171875q0.9375 1.15625 0.9375 3.25q0 2.109375 -0.953125 3.28125q-0.9375 1.171875 -2.609375 1.171875zm-0.1875 -7.78125q-1.3125 0 -1.90625 0.734375q-0.578125 0.71875 -0.59375 2.3125l0 0.28125q0 1.8125 0.59375 2.59375q0.609375 0.765625 1.9375 0.765625q1.109375 0 1.734375 -0.890625q0.640625 -0.90625 0.640625 -2.484375q0 -1.59375 -0.640625 -2.453125q-0.625 -0.859375 -1.765625 -0.859375zm9.9921875 7.78125q-0.828125 0 -1.53125 -0.3125q-0.6875 -0.3125 -1.15625 -0.953125l-0.09375 0q0.09375 0.75 0.09375 1.4375l0 3.515625l-1.296875 0l0 -12.40625l1.0625 0l0.171875 1.171875l0.0625 0q0.5 -0.703125 1.15625 -1.015625q0.671875 -0.3125 1.53125 -0.3125q1.703125 0 2.625 1.171875q0.9375 1.15625 0.9375 3.25q0 2.109375 -0.953125 3.28125q-0.9375 1.171875 -2.609375 1.171875zm-0.1875 -7.78125q-1.3125 0 -1.90625 0.734375q-0.578125 0.71875 -0.59375 2.3125l0 0.28125q0 1.8125 0.59375 2.59375q0.609375 0.765625 1.9375 0.765625q1.109375 0 1.734375 -0.890625q0.640625 -0.90625 0.640625 -2.484375q0 -1.59375 -0.640625 -2.453125q-0.625 -0.859375 -1.765625 -0.859375zm7.3046875 7.625l-1.296875 0l0 -12.15625l1.296875 0l0 12.15625zm4.046875 0l-1.296875 0l0 -8.5625l1.296875 0l0 8.5625zm-1.40625 -10.890625q0 -0.4375 0.21875 -0.640625q0.21875 -0.21875 0.546875 -0.21875q0.3125 0 0.53125 0.21875q0.234375 0.203125 0.234375 0.640625q0 0.4375 -0.234375 0.65625q-0.21875 0.21875 -0.53125 0.21875q-0.328125 0 -0.546875 -0.21875q-0.21875 -0.21875 -0.21875 -0.65625zm7.578125 11.046875q-1.859375 0 -2.875 -1.140625q-1.015625 -1.15625 -1.015625 -3.25q0 -2.140625 1.03125 -3.3125q1.03125 -1.171875 2.953125 -1.171875q0.609375 0 1.21875 0.140625q0.625 0.125 0.984375 0.296875l-0.40625 1.109375q-0.421875 -0.171875 -0.9375 -0.28125q-0.5 -0.125 -0.890625 -0.125q-2.609375 0 -2.609375 3.328125q0 1.578125 0.625 2.421875q0.640625 0.84375 1.890625 0.84375q1.078125 0 2.203125 -0.453125l0 1.140625q-0.859375 0.453125 -2.171875 0.453125zm9.4609375 -0.15625l-0.25 -1.21875l-0.0625 0q-0.640625 0.796875 -1.28125 1.09375q-0.640625 0.28125 -1.59375 0.28125q-1.265625 0 -2.0 -0.65625q-0.71875 -0.65625 -0.71875 -1.875q0 -2.59375 4.15625 -2.71875l1.453125 -0.046875l0 -0.53125q0 -1.0 -0.4375 -1.484375q-0.4375 -0.484375 -1.390625 -0.484375q-1.0625 0 -2.421875 0.65625l-0.390625 -0.984375q0.625 -0.34375 1.375 -0.53125q0.765625 -0.203125 1.515625 -0.203125q1.53125 0 2.265625 0.6875q0.75 0.671875 0.75 2.171875l0 5.84375l-0.96875 0zm-2.921875 -0.921875q1.203125 0 1.890625 -0.65625q0.703125 -0.671875 0.703125 -1.859375l0 -0.78125l-1.296875 0.0625q-1.546875 0.046875 -2.234375 0.484375q-0.6875 0.421875 -0.6875 1.3125q0 0.703125 0.421875 1.078125q0.4375 0.359375 1.203125 0.359375zm9.3203125 0q0.34375 0 0.65625 -0.046875q0.328125 -0.046875 0.515625 -0.109375l0 1.0q-0.203125 0.109375 -0.625 0.171875q-0.40625 0.0625 -0.734375 0.0625q-2.484375 0 -2.484375 -2.625l0 -5.09375l-1.21875 0l0 -0.625l1.21875 -0.53125l0.546875 -1.828125l0.75 0l0 1.984375l2.484375 0l0 1.0l-2.484375 0l0 5.046875q0 0.765625 0.359375 1.1875q0.375 0.40625 1.015625 0.40625zm4.1796875 0.921875l-1.296875 0l0 -8.5625l1.296875 0l0 8.5625zm-1.40625 -10.890625q0 -0.4375 0.21875 -0.640625q0.21875 -0.21875 0.546875 -0.21875q0.3125 0 0.53125 0.21875q0.234375 0.203125 0.234375 0.640625q0 0.4375 -0.234375 0.65625q-0.21875 0.21875 -0.53125 0.21875q-0.328125 0 -0.546875 -0.21875q-0.21875 -0.21875 -0.21875 -0.65625zm11.546875 6.59375q0 2.09375 -1.0625 3.28125q-1.046875 1.171875 -2.90625 1.171875q-1.140625 0 -2.03125 -0.53125q-0.890625 -0.546875 -1.375 -1.546875q-0.484375 -1.015625 -0.484375 -2.375q0 -2.09375 1.046875 -3.25q1.046875 -1.171875 2.90625 -1.171875q1.796875 0 2.84375 1.203125q1.0625 1.1875 1.0625 3.21875zm-6.515625 0q0 1.640625 0.65625 2.5q0.65625 0.859375 1.921875 0.859375q1.28125 0 1.9375 -0.84375q0.65625 -0.859375 0.65625 -2.515625q0 -1.625 -0.65625 -2.46875q-0.65625 -0.859375 -1.953125 -0.859375q-1.265625 0 -1.921875 0.84375q-0.640625 0.828125 -0.640625 2.484375zm14.6484375 4.296875l0 -5.546875q0 -1.046875 -0.484375 -1.5625q-0.46875 -0.515625 -1.484375 -0.515625q-1.34375 0 -1.96875 0.734375q-0.625 0.71875 -0.625 2.390625l0 4.5l-1.296875 0l0 -8.5625l1.0625 0l0.203125 1.171875l0.0625 0q0.40625 -0.640625 1.125 -0.984375q0.71875 -0.34375 1.59375 -0.34375q1.546875 0 2.328125 0.75q0.78125 0.734375 0.78125 2.375l0 5.59375l-1.296875 0zm14.7578125 -3.046875q0 1.515625 -1.09375 2.359375q-1.09375 0.84375 -2.96875 0.84375q-2.03125 0 -3.125 -0.53125l0 -1.28125q0.703125 0.296875 1.53125 0.46875q0.828125 0.171875 1.640625 0.171875q1.328125 0 2.0 -0.5q0.671875 -0.5 0.671875 -1.40625q0 -0.59375 -0.234375 -0.96875q-0.234375 -0.375 -0.796875 -0.6875q-0.5625 -0.328125 -1.703125 -0.734375q-1.59375 -0.578125 -2.28125 -1.359375q-0.671875 -0.78125 -0.671875 -2.03125q0 -1.328125 0.984375 -2.109375q1.0 -0.78125 2.625 -0.78125q1.703125 0 3.140625 0.625l-0.421875 1.15625q-1.40625 -0.59375 -2.75 -0.59375q-1.046875 0 -1.640625 0.453125q-0.59375 0.453125 -0.59375 1.265625q0 0.59375 0.21875 0.96875q0.21875 0.375 0.734375 0.703125q0.515625 0.3125 1.59375 0.6875q1.796875 0.640625 2.46875 1.375q0.671875 0.734375 0.671875 1.90625zm5.765625 3.203125q-1.90625 0 -3.0 -1.15625q-1.09375 -1.15625 -1.09375 -3.21875q0 -2.0625 1.015625 -3.28125q1.015625 -1.21875 2.734375 -1.21875q1.609375 0 2.546875 1.0625q0.9375 1.046875 0.9375 2.78125l0 0.828125l-5.890625 0q0.03125 1.5 0.75 2.28125q0.734375 0.78125 2.046875 0.78125q1.375 0 2.734375 -0.578125l0 1.15625q-0.6875 0.296875 -1.3125 0.421875q-0.609375 0.140625 -1.46875 0.140625zm-0.359375 -7.796875q-1.03125 0 -1.640625 0.671875q-0.609375 0.671875 -0.71875 1.859375l4.46875 0q0 -1.21875 -0.546875 -1.875q-0.546875 -0.65625 -1.5625 -0.65625zm9.6171875 -1.078125q0.578125 0 1.03125 0.09375l-0.1875 1.203125q-0.53125 -0.125 -0.9375 -0.125q-1.03125 0 -1.78125 0.84375q-0.734375 0.84375 -0.734375 2.109375l0 4.59375l-1.296875 0l0 -8.5625l1.078125 0l0.140625 1.578125l0.0625 0q0.484375 -0.828125 1.15625 -1.28125q0.671875 -0.453125 1.46875 -0.453125zm4.5 8.71875l-3.25 -8.5625l1.390625 0l1.84375 5.078125q0.625 1.78125 0.734375 2.3125l0.0625 0q0.09375 -0.421875 0.546875 -1.71875q0.453125 -1.296875 2.046875 -5.671875l1.390625 0l-3.25 8.5625l-1.515625 0zm9.765625 0.15625q-1.90625 0 -3.0 -1.15625q-1.09375 -1.15625 -1.09375 -3.21875q0 -2.0625 1.015625 -3.28125q1.015625 -1.21875 2.734375 -1.21875q1.609375 0 2.546875 1.0625q0.9375 1.046875 0.9375 2.78125l0 0.828125l-5.890625 0q0.03125 1.5 0.75 2.28125q0.734375 0.78125 2.046875 0.78125q1.375 0 2.734375 -0.578125l0 1.15625q-0.6875 0.296875 -1.3125 0.421875q-0.609375 0.140625 -1.46875 0.140625zm-0.359375 -7.796875q-1.03125 0 -1.640625 0.671875q-0.609375 0.671875 -0.71875 1.859375l4.46875 0q0 -1.21875 -0.546875 -1.875q-0.546875 -0.65625 -1.5625 -0.65625zm9.6171875 -1.078125q0.578125 0 1.03125 0.09375l-0.1875 1.203125q-0.53125 -0.125 -0.9375 -0.125q-1.03125 0 -1.78125 0.84375q-0.734375 0.84375 -0.734375 2.109375l0 4.59375l-1.296875 0l0 -8.5625l1.078125 0l0.140625 1.578125l0.0625 0q0.484375 -0.828125 1.15625 -1.28125q0.671875 -0.453125 1.46875 -0.453125z" fill-rule="nonzero"></path><path fill="#c5d8eb" d="m390.3517 417.86893l0 0c0 -4.038574 3.2738953 -7.3125 7.3124695 -7.3125l102.50888 0c1.9393921 0 3.7993774 0.77041626 5.1707153 2.1417847c1.3713684 1.3713379 2.1417847 3.2313232 2.1417847 5.1707153l0 29.249023c0 4.038574 -3.2739258 7.3125 -7.3125 7.3125l-102.50888 0l0 0c-4.038574 0 -7.3124695 -3.2739258 -7.3124695 -7.3125z" fill-rule="nonzero"></path><path stroke="#000000" stroke-width="1.0" stroke-linejoin="round" stroke-linecap="butt" d="m390.3517 417.86893l0 0c0 -4.038574 3.2738953 -7.3125 7.3124695 -7.3125l102.50888 0c1.9393921 0 3.7993774 0.77041626 5.1707153 2.1417847c1.3713684 1.3713379 2.1417847 3.2313232 2.1417847 5.1707153l0 29.249023c0 4.038574 -3.2739258 7.3125 -7.3125 7.3125l-102.50888 0l0 0c-4.038574 0 -7.3124695 -3.2739258 -7.3124695 -7.3125z" fill-rule="nonzero"></path><path fill="#000000" d="m404.1935 433.43405l0 3.859375l-1.078125 0l0 -9.28125l2.546875 0q1.703125 0 2.515625 0.65625q0.8125 0.65625 0.8125 1.96875q0 1.84375 -1.859375 2.484375l2.515625 4.171875l-1.28125 0l-2.234375 -3.859375l-1.9375 0zm0 -0.921875l1.46875 0q1.15625 0 1.6875 -0.453125q0.53125 -0.453125 0.53125 -1.375q0 -0.90625 -0.546875 -1.3125q-0.546875 -0.40625 -1.734375 -0.40625l-1.40625 0l0 3.546875zm9.942078 4.90625q-1.546875 0 -2.4375 -0.9375q-0.890625 -0.9375 -0.890625 -2.609375q0 -1.6875 0.828125 -2.671875q0.828125 -0.984375 2.21875 -0.984375q1.3125 0 2.0625 0.859375q0.765625 0.859375 0.765625 2.265625l0 0.671875l-4.78125 0q0.03125 1.21875 0.609375 1.859375q0.59375 0.625 1.65625 0.625q1.125 0 2.21875 -0.46875l0 0.9375q-0.5625 0.25 -1.0625 0.34375q-0.484375 0.109375 -1.1875 0.109375zm-0.296875 -6.328125q-0.828125 0 -1.328125 0.546875q-0.5 0.546875 -0.59375 1.515625l3.640625 0q0 -1.0 -0.453125 -1.53125q-0.4375 -0.53125 -1.265625 -0.53125zm9.32132 4.3125q0 0.96875 -0.734375 1.5q-0.71875 0.515625 -2.03125 0.515625q-1.375 0 -2.15625 -0.4375l0 -0.96875q0.5 0.25 1.078125 0.390625q0.578125 0.140625 1.109375 0.140625q0.828125 0 1.265625 -0.25q0.453125 -0.265625 0.453125 -0.8125q0 -0.40625 -0.359375 -0.6875q-0.34375 -0.296875 -1.375 -0.6875q-0.96875 -0.359375 -1.375 -0.625q-0.40625 -0.28125 -0.609375 -0.625q-0.203125 -0.34375 -0.203125 -0.8125q0 -0.84375 0.6875 -1.328125q0.703125 -0.5 1.90625 -0.5q1.125 0 2.1875 0.453125l-0.375 0.859375q-1.046875 -0.4375 -1.890625 -0.4375q-0.75 0 -1.140625 0.234375q-0.375 0.234375 -0.375 0.65625q0 0.265625 0.140625 0.46875q0.15625 0.203125 0.46875 0.375q0.3125 0.171875 1.21875 0.515625q1.234375 0.453125 1.671875 0.90625q0.4375 0.453125 0.4375 1.15625zm4.108185 1.140625q0.28125 0 0.546875 -0.03125q0.265625 -0.046875 0.40625 -0.09375l0 0.8125q-0.171875 0.078125 -0.5 0.125q-0.328125 0.0625 -0.59375 0.0625q-2.03125 0 -2.03125 -2.125l0 -4.140625l-0.984375 0l0 -0.5l0.984375 -0.4375l0.453125 -1.484375l0.609375 0l0 1.609375l2.015625 0l0 0.8125l-2.015625 0l0 4.09375q0 0.625 0.296875 0.96875q0.296875 0.328125 0.8125 0.328125zm7.167389 -3.109375l0 3.859375l-1.078125 0l0 -9.28125l2.546875 0q1.703125 0 2.515625 0.65625q0.8125 0.65625 0.8125 1.96875q0 1.84375 -1.859375 2.484375l2.515625 4.171875l-1.28125 0l-2.234375 -3.859375l-1.9375 0zm0 -0.921875l1.46875 0q1.15625 0 1.6875 -0.453125q0.53125 -0.453125 0.53125 -1.375q0 -0.90625 -0.546875 -1.3125q-0.546875 -0.40625 -1.734375 -0.40625l-1.40625 0l0 3.546875zm9.942108 4.90625q-1.546875 0 -2.4375 -0.9375q-0.890625 -0.9375 -0.890625 -2.609375q0 -1.6875 0.828125 -2.671875q0.828125 -0.984375 2.21875 -0.984375q1.3125 0 2.0625 0.859375q0.765625 0.859375 0.765625 2.265625l0 0.671875l-4.78125 0q0.03125 1.21875 0.609375 1.859375q0.59375 0.625 1.65625 0.625q1.125 0 2.21875 -0.46875l0 0.9375q-0.5625 0.25 -1.0625 0.34375q-0.484375 0.109375 -1.1875 0.109375zm-0.296875 -6.328125q-0.828125 0 -1.328125 0.546875q-0.5 0.546875 -0.59375 1.515625l3.640625 0q0 -1.0 -0.453125 -1.53125q-0.4375 -0.53125 -1.265625 -0.53125zm9.321289 4.3125q0 0.96875 -0.734375 1.5q-0.71875 0.515625 -2.03125 0.515625q-1.375 0 -2.15625 -0.4375l0 -0.96875q0.5 0.25 1.078125 0.390625q0.578125 0.140625 1.109375 0.140625q0.828125 0 1.265625 -0.25q0.453125 -0.265625 0.453125 -0.8125q0 -0.40625 -0.359375 -0.6875q-0.34375 -0.296875 -1.375 -0.6875q-0.96875 -0.359375 -1.375 -0.625q-0.40625 -0.28125 -0.609375 -0.625q-0.203125 -0.34375 -0.203125 -0.8125q0 -0.84375 0.6875 -1.328125q0.703125 -0.5 1.90625 -0.5q1.125 0 2.1875 0.453125l-0.375 0.859375q-1.046875 -0.4375 -1.890625 -0.4375q-0.75 0 -1.140625 0.234375q-0.375 0.234375 -0.375 0.65625q0 0.265625 0.140625 0.46875q0.15625 0.203125 0.46875 0.375q0.3125 0.171875 1.21875 0.515625q1.234375 0.453125 1.671875 0.90625q0.4375 0.453125 0.4375 1.15625zm7.8738403 -1.59375q0 1.703125 -0.859375 2.65625q-0.859375 0.953125 -2.375 0.953125q-0.921875 0 -1.65625 -0.4375q-0.71875 -0.4375 -1.109375 -1.25q-0.390625 -0.828125 -0.390625 -1.921875q0 -1.703125 0.84375 -2.640625q0.859375 -0.953125 2.359375 -0.953125q1.46875 0 2.328125 0.96875q0.859375 0.96875 0.859375 2.625zm-5.296875 0q0 1.328125 0.53125 2.03125q0.53125 0.703125 1.5625 0.703125q1.03125 0 1.5625 -0.6875q0.546875 -0.703125 0.546875 -2.046875q0 -1.328125 -0.546875 -2.015625q-0.53125 -0.6875 -1.578125 -0.6875q-1.03125 0 -1.5625 0.6875q-0.515625 0.671875 -0.515625 2.015625zm8.331482 -3.46875l0 4.515625q0 0.84375 0.375 1.265625q0.390625 0.421875 1.21875 0.421875q1.09375 0 1.59375 -0.59375q0.515625 -0.609375 0.515625 -1.953125l0 -3.65625l1.046875 0l0 6.953125l-0.859375 0l-0.15625 -0.9375l-0.0625 0q-0.328125 0.515625 -0.90625 0.796875q-0.5625 0.265625 -1.296875 0.265625q-1.28125 0 -1.90625 -0.59375q-0.625 -0.609375 -0.625 -1.9375l0 -4.546875l1.0625 0zm10.36792 -0.125q0.453125 0 0.828125 0.0625l-0.140625 0.984375q-0.4375 -0.09375 -0.765625 -0.09375q-0.84375 0 -1.453125 0.6875q-0.59375 0.6875 -0.59375 1.703125l0 3.734375l-1.046875 0l0 -6.953125l0.859375 0l0.125 1.28125l0.046875 0q0.390625 -0.671875 0.9375 -1.03125q0.546875 -0.375 1.203125 -0.375zm5.0343323 7.203125q-1.5 0 -2.328125 -0.921875q-0.828125 -0.9375 -0.828125 -2.640625q0 -1.75 0.828125 -2.6875q0.84375 -0.953125 2.40625 -0.953125q0.5 0 1.0 0.109375q0.5 0.09375 0.78125 0.25l-0.3125 0.890625q-0.359375 -0.140625 -0.765625 -0.234375q-0.40625 -0.09375 -0.734375 -0.09375q-2.109375 0 -2.109375 2.703125q0 1.28125 0.515625 1.96875q0.515625 0.6875 1.53125 0.6875q0.859375 0 1.78125 -0.375l0 0.9375q-0.703125 0.359375 -1.765625 0.359375zm6.5170593 0q-1.546875 0 -2.4375 -0.9375q-0.890625 -0.9375 -0.890625 -2.609375q0 -1.6875 0.828125 -2.671875q0.828125 -0.984375 2.21875 -0.984375q1.3125 0 2.0625 0.859375q0.765625 0.859375 0.765625 2.265625l0 0.671875l-4.78125 0q0.03125 1.21875 0.609375 1.859375q0.59375 0.625 1.65625 0.625q1.125 0 2.21875 -0.46875l0 0.9375q-0.5625 0.25 -1.0625 0.34375q-0.484375 0.109375 -1.1875 0.109375zm-0.296875 -6.328125q-0.828125 0 -1.328125 0.546875q-0.5 0.546875 -0.59375 1.515625l3.640625 0q0 -1.0 -0.453125 -1.53125q-0.4375 -0.53125 -1.265625 -0.53125zm9.321289 4.3125q0 0.96875 -0.734375 1.5q-0.71875 0.515625 -2.03125 0.515625q-1.375 0 -2.15625 -0.4375l0 -0.96875q0.5 0.25 1.078125 0.390625q0.578125 0.140625 1.109375 0.140625q0.828125 0 1.265625 -0.25q0.453125 -0.265625 0.453125 -0.8125q0 -0.40625 -0.359375 -0.6875q-0.34375 -0.296875 -1.375 -0.6875q-0.96875 -0.359375 -1.375 -0.625q-0.40625 -0.28125 -0.609375 -0.625q-0.203125 -0.34375 -0.203125 -0.8125q0 -0.84375 0.6875 -1.328125q0.703125 -0.5 1.90625 -0.5q1.125 0 2.1875 0.453125l-0.375 0.859375q-1.046875 -0.4375 -1.890625 -0.4375q-0.75 0 -1.140625 0.234375q-0.375 0.234375 -0.375 0.65625q0 0.265625 0.140625 0.46875q0.15625 0.203125 0.46875 0.375q0.3125 0.171875 1.21875 0.515625q1.234375 0.453125 1.671875 0.90625q0.4375 0.453125 0.4375 1.15625z" fill-rule="nonzero"></path><path fill="#c5d8eb" d="m570.34644 417.86893l0 0c0 -4.038574 3.2739258 -7.3125 7.3125 -7.3125l102.50891 0c1.9393921 0 3.7993164 0.77041626 5.1707153 2.1417847c1.3713379 1.3713379 2.1417236 3.2313232 2.1417236 5.1707153l0 29.249023c0 4.038574 -3.2738647 7.3125 -7.312439 7.3125l-102.50891 0l0 0c-4.038574 0 -7.3125 -3.2739258 -7.3125 -7.3125z" fill-rule="nonzero"></path><path stroke="#000000" stroke-width="1.0" stroke-linejoin="round" stroke-linecap="butt" d="m570.34644 417.86893l0 0c0 -4.038574 3.2739258 -7.3125 7.3125 -7.3125l102.50891 0c1.9393921 0 3.7993164 0.77041626 5.1707153 2.1417847c1.3713379 1.3713379 2.1417236 3.2313232 2.1417236 5.1707153l0 29.249023c0 4.038574 -3.2738647 7.3125 -7.312439 7.3125l-102.50891 0l0 0c-4.038574 0 -7.3125 -3.2739258 -7.3125 -7.3125z" fill-rule="nonzero"></path><path fill="#000000" d="m600.4618 422.7153q0 1.40625 -0.96875 2.171875q-0.953125 0.75 -2.734375 0.75l-1.09375 0l0 3.65625l-1.078125 0l0 -9.28125l2.40625 0q3.46875 0 3.46875 2.703125zm-4.796875 2.0l0.96875 0q1.4375 0 2.078125 -0.453125q0.640625 -0.46875 0.640625 -1.5q0 -0.921875 -0.609375 -1.359375q-0.59375 -0.453125 -1.875 -0.453125l-1.203125 0l0 3.765625zm9.727295 4.703125q-1.546875 0 -2.4375 -0.9375q-0.890625 -0.9375 -0.890625 -2.609375q0 -1.6875 0.828125 -2.671875q0.828125 -0.984375 2.21875 -0.984375q1.3125 0 2.0625 0.859375q0.765625 0.859375 0.765625 2.265625l0 0.671875l-4.78125 0q0.03125 1.21875 0.609375 1.859375q0.59375 0.625 1.65625 0.625q1.125 0 2.21875 -0.46875l0 0.9375q-0.5625 0.25 -1.0625 0.34375q-0.484375 0.109375 -1.1875 0.109375zm-0.296875 -6.328125q-0.828125 0 -1.328125 0.546875q-0.5 0.546875 -0.59375 1.515625l3.640625 0q0 -1.0 -0.453125 -1.53125q-0.4375 -0.53125 -1.265625 -0.53125zm8.00885 -0.875q0.453125 0 0.828125 0.0625l-0.140625 0.984375q-0.4375 -0.09375 -0.765625 -0.09375q-0.84375 0 -1.453125 0.6875q-0.59375 0.6875 -0.59375 1.703125l0 3.734375l-1.046875 0l0 -6.953125l0.859375 0l0.125 1.28125l0.046875 0q0.390625 -0.671875 0.9375 -1.03125q0.546875 -0.375 1.203125 -0.375zm6.7530518 5.1875q0 0.96875 -0.734375 1.5q-0.71875 0.515625 -2.03125 0.515625q-1.375 0 -2.15625 -0.4375l0 -0.96875q0.5 0.25 1.078125 0.390625q0.578125 0.140625 1.109375 0.140625q0.828125 0 1.265625 -0.25q0.453125 -0.265625 0.453125 -0.8125q0 -0.40625 -0.359375 -0.6875q-0.34375 -0.296875 -1.375 -0.6875q-0.96875 -0.359375 -1.375 -0.625q-0.40625 -0.28125 -0.609375 -0.625q-0.203125 -0.34375 -0.203125 -0.8125q0 -0.84375 0.6875 -1.328125q0.703125 -0.5 1.90625 -0.5q1.125 0 2.1875 0.453125l-0.375 0.859375q-1.046875 -0.4375 -1.890625 -0.4375q-0.75 0 -1.140625 0.234375q-0.375 0.234375 -0.375 0.65625q0 0.265625 0.140625 0.46875q0.15625 0.203125 0.46875 0.375q0.3125 0.171875 1.21875 0.515625q1.234375 0.453125 1.671875 0.90625q0.4375 0.453125 0.4375 1.15625zm2.9207153 1.890625l-1.046875 0l0 -6.953125l1.046875 0l0 6.953125zm-1.140625 -8.84375q0 -0.359375 0.171875 -0.53125q0.1875 -0.171875 0.453125 -0.171875q0.25 0 0.421875 0.171875q0.1875 0.171875 0.1875 0.53125q0 0.359375 -0.1875 0.53125q-0.171875 0.171875 -0.421875 0.171875q-0.265625 0 -0.453125 -0.171875q-0.171875 -0.171875 -0.171875 -0.53125zm7.9492188 6.953125q0 0.96875 -0.734375 1.5q-0.71875 0.515625 -2.03125 0.515625q-1.375 0 -2.15625 -0.4375l0 -0.96875q0.5 0.25 1.078125 0.390625q0.578125 0.140625 1.109375 0.140625q0.828125 0 1.265625 -0.25q0.453125 -0.265625 0.453125 -0.8125q0 -0.40625 -0.359375 -0.6875q-0.34375 -0.296875 -1.375 -0.6875q-0.96875 -0.359375 -1.375 -0.625q-0.40625 -0.28125 -0.609375 -0.625q-0.203125 -0.34375 -0.203125 -0.8125q0 -0.84375 0.6875 -1.328125q0.703125 -0.5 1.90625 -0.5q1.125 0 2.1875 0.453125l-0.375 0.859375q-1.046875 -0.4375 -1.890625 -0.4375q-0.75 0 -1.140625 0.234375q-0.375 0.234375 -0.375 0.65625q0 0.265625 0.140625 0.46875q0.15625 0.203125 0.46875 0.375q0.3125 0.171875 1.21875 0.515625q1.234375 0.453125 1.671875 0.90625q0.4375 0.453125 0.4375 1.15625zm4.1081543 1.140625q0.28125 0 0.546875 -0.03125q0.265625 -0.046875 0.40625 -0.09375l0 0.8125q-0.171875 0.078125 -0.5 0.125q-0.328125 0.0625 -0.59375 0.0625q-2.03125 0 -2.03125 -2.125l0 -4.140625l-0.984375 0l0 -0.5l0.984375 -0.4375l0.453125 -1.484375l0.609375 0l0 1.609375l2.015625 0l0 0.8125l-2.015625 0l0 4.09375q0 0.625 0.296875 0.96875q0.296875 0.328125 0.8125 0.328125zm5.408325 0.875q-1.546875 0 -2.4375 -0.9375q-0.890625 -0.9375 -0.890625 -2.609375q0 -1.6875 0.828125 -2.671875q0.828125 -0.984375 2.21875 -0.984375q1.3125 0 2.0625 0.859375q0.765625 0.859375 0.765625 2.265625l0 0.671875l-4.78125 0q0.03125 1.21875 0.609375 1.859375q0.59375 0.625 1.65625 0.625q1.125 0 2.21875 -0.46875l0 0.9375q-0.5625 0.25 -1.0625 0.34375q-0.484375 0.109375 -1.1875 0.109375zm-0.296875 -6.328125q-0.828125 0 -1.328125 0.546875q-0.5 0.546875 -0.59375 1.515625l3.640625 0q0 -1.0 -0.453125 -1.53125q-0.4375 -0.53125 -1.265625 -0.53125zm9.586975 6.203125l0 -4.5q0 -0.84375 -0.390625 -1.265625q-0.375 -0.421875 -1.203125 -0.421875q-1.09375 0 -1.609375 0.59375q-0.5 0.578125 -0.5 1.9375l0 3.65625l-1.046875 0l0 -6.953125l0.84375 0l0.171875 0.953125l0.0625 0q0.3125 -0.515625 0.890625 -0.796875q0.59375 -0.28125 1.3125 -0.28125q1.25 0 1.890625 0.609375q0.640625 0.59375 0.640625 1.9375l0 4.53125l-1.0625 0zm6.195984 0.125q-1.5 0 -2.328125 -0.921875q-0.828125 -0.9375 -0.828125 -2.640625q0 -1.75 0.828125 -2.6875q0.84375 -0.953125 2.40625 -0.953125q0.5 0 1.0 0.109375q0.5 0.09375 0.78125 0.25l-0.3125 0.890625q-0.359375 -0.140625 -0.765625 -0.234375q-0.40625 -0.09375 -0.734375 -0.09375q-2.109375 0 -2.109375 2.703125q0 1.28125 0.515625 1.96875q0.515625 0.6875 1.53125 0.6875q0.859375 0 1.78125 -0.375l0 0.9375q-0.703125 0.359375 -1.765625 0.359375zm6.51709 0q-1.546875 0 -2.4375 -0.9375q-0.890625 -0.9375 -0.890625 -2.609375q0 -1.6875 0.828125 -2.671875q0.828125 -0.984375 2.21875 -0.984375q1.3125 0 2.0625 0.859375q0.765625 0.859375 0.765625 2.265625l0 0.671875l-4.78125 0q0.03125 1.21875 0.609375 1.859375q0.59375 0.625 1.65625 0.625q1.125 0 2.21875 -0.46875l0 0.9375q-0.5625 0.25 -1.0625 0.34375q-0.484375 0.109375 -1.1875 0.109375zm-0.296875 -6.328125q-0.828125 0 -1.328125 0.546875q-0.5 0.546875 -0.59375 1.515625l3.640625 0q0 -1.0 -0.453125 -1.53125q-0.4375 -0.53125 -1.265625 -0.53125z" fill-rule="nonzero"></path><path fill="#000000" d="m613.21234 445.29343l0 -9.28125l1.078125 0l0 8.296875l4.09375 0l0 0.984375l-5.171875 0zm11.027222 0l-0.203125 -0.984375l-0.046875 0q-0.53125 0.640625 -1.046875 0.875q-0.515625 0.234375 -1.28125 0.234375q-1.046875 0 -1.640625 -0.53125q-0.578125 -0.53125 -0.578125 -1.515625q0 -2.109375 3.375 -2.203125l1.171875 -0.046875l0 -0.4375q0 -0.8125 -0.359375 -1.203125q-0.34375 -0.390625 -1.109375 -0.390625q-0.875 0 -1.96875 0.53125l-0.328125 -0.796875q0.515625 -0.28125 1.125 -0.4375q0.609375 -0.171875 1.234375 -0.171875q1.25 0 1.84375 0.5625q0.59375 0.546875 0.59375 1.765625l0 4.75l-0.78125 0zm-2.375 -0.75q0.984375 0 1.546875 -0.53125q0.5625 -0.546875 0.5625 -1.515625l0 -0.625l-1.0625 0.046875q-1.25 0.046875 -1.8125 0.390625q-0.546875 0.34375 -0.546875 1.078125q0 0.5625 0.34375 0.859375q0.34375 0.296875 0.96875 0.296875zm4.4124756 -6.203125l1.125 0l1.53125 3.96875q0.5 1.359375 0.609375 1.953125l0.0625 0q0.078125 -0.328125 0.34375 -1.109375q0.265625 -0.78125 1.71875 -4.8125l1.125 0l-2.984375 7.921875q-0.4375 1.171875 -1.03125 1.65625q-0.59375 0.5 -1.46875 0.5q-0.46875 0 -0.9375 -0.109375l0 -0.84375q0.34375 0.078125 0.765625 0.078125q1.09375 0 1.5625 -1.21875l0.375 -1.0l-2.796875 -6.984375zm10.7630005 7.078125q-1.546875 0 -2.4375 -0.9375q-0.890625 -0.9375 -0.890625 -2.609375q0 -1.6875 0.828125 -2.671875q0.828125 -0.984375 2.21875 -0.984375q1.3125 0 2.0625 0.859375q0.765625 0.859375 0.765625 2.265625l0 0.671875l-4.78125 0q0.03125 1.21875 0.609375 1.859375q0.59375 0.625 1.65625 0.625q1.125 0 2.21875 -0.46875l0 0.9375q-0.5625 0.25 -1.0625 0.34375q-0.484375 0.109375 -1.1875 0.109375zm-0.296875 -6.328125q-0.828125 0 -1.328125 0.546875q-0.5 0.546875 -0.59375 1.515625l3.640625 0q0 -1.0 -0.453125 -1.53125q-0.4375 -0.53125 -1.265625 -0.53125zm8.00885 -0.875q0.453125 0 0.828125 0.0625l-0.140625 0.984375q-0.4375 -0.09375 -0.765625 -0.09375q-0.84375 0 -1.453125 0.6875q-0.59375 0.6875 -0.59375 1.703125l0 3.734375l-1.046875 0l0 -6.953125l0.859375 0l0.125 1.28125l0.046875 0q0.390625 -0.671875 0.9375 -1.03125q0.546875 -0.375 1.203125 -0.375z" fill-rule="nonzero"></path><path fill="#c5d8eb" d="m750.3412 417.86893l0 0c0 -4.038574 3.2739258 -7.3125 7.3125 -7.3125l102.50891 0c1.9393921 0 3.7993164 0.77041626 5.1707153 2.1417847c1.3713379 1.3713379 2.1417236 3.2313232 2.1417236 5.1707153l0 29.249023c0 4.038574 -3.2738647 7.3125 -7.312439 7.3125l-102.50891 0l0 0c-4.038574 0 -7.3125 -3.2739258 -7.3125 -7.3125z" fill-rule="nonzero"></path><path stroke="#000000" stroke-width="1.0" stroke-linejoin="round" stroke-linecap="butt" d="m750.3412 417.86893l0 0c0 -4.038574 3.2739258 -7.3125 7.3125 -7.3125l102.50891 0c1.9393921 0 3.7993164 0.77041626 5.1707153 2.1417847c1.3713379 1.3713379 2.1417236 3.2313232 2.1417236 5.1707153l0 29.249023c0 4.038574 -3.2738647 7.3125 -7.312439 7.3125l-102.50891 0l0 0c-4.038574 0 -7.3125 -3.2739258 -7.3125 -7.3125z" fill-rule="nonzero"></path><path fill="#000000" d="m784.89655 420.01218l2.609375 0q1.859375 0 2.671875 0.5625q0.828125 0.546875 0.828125 1.734375q0 0.828125 -0.46875 1.375q-0.453125 0.53125 -1.328125 0.6875l0 0.0625q2.109375 0.359375 2.109375 2.21875q0 1.25 -0.84375 1.953125q-0.828125 0.6875 -2.34375 0.6875l-3.234375 0l0 -9.28125zm1.078125 3.96875l1.765625 0q1.15625 0 1.65625 -0.359375q0.5 -0.359375 0.5 -1.203125q0 -0.78125 -0.5625 -1.125q-0.5625 -0.34375 -1.78125 -0.34375l-1.578125 0l0 3.03125zm0 0.921875l0 3.46875l1.9375 0q1.125 0 1.6875 -0.4375q0.5625 -0.4375 0.5625 -1.359375q0 -0.859375 -0.578125 -1.265625q-0.578125 -0.40625 -1.765625 -0.40625l-1.84375 0zm13.40155 0.90625q0 1.703125 -0.859375 2.65625q-0.859375 0.953125 -2.375 0.953125q-0.921875 0 -1.65625 -0.4375q-0.71875 -0.4375 -1.109375 -1.25q-0.390625 -0.828125 -0.390625 -1.921875q0 -1.703125 0.84375 -2.640625q0.859375 -0.953125 2.359375 -0.953125q1.46875 0 2.328125 0.96875q0.859375 0.96875 0.859375 2.625zm-5.296875 0q0 1.328125 0.53125 2.03125q0.53125 0.703125 1.5625 0.703125q1.03125 0 1.5625 -0.6875q0.546875 -0.703125 0.546875 -2.046875q0 -1.328125 -0.546875 -2.015625q-0.53125 -0.6875 -1.578125 -0.6875q-1.03125 0 -1.5625 0.6875q-0.515625 0.671875 -0.515625 2.015625zm13.347107 0q0 1.703125 -0.859375 2.65625q-0.859375 0.953125 -2.375 0.953125q-0.921875 0 -1.65625 -0.4375q-0.71875 -0.4375 -1.109375 -1.25q-0.390625 -0.828125 -0.390625 -1.921875q0 -1.703125 0.84375 -2.640625q0.859375 -0.953125 2.359375 -0.953125q1.46875 0 2.328125 0.96875q0.859375 0.96875 0.859375 2.625zm-5.296875 0q0 1.328125 0.53125 2.03125q0.53125 0.703125 1.5625 0.703125q1.03125 0 1.5625 -0.6875q0.546875 -0.703125 0.546875 -2.046875q0 -1.328125 -0.546875 -2.015625q-0.53125 -0.6875 -1.578125 -0.6875q-1.03125 0 -1.5625 0.6875q-0.515625 0.671875 -0.515625 2.015625zm8.378418 -0.078125q0.28125 -0.390625 0.828125 -1.015625l2.25 -2.375l1.25 0l-2.8125 2.953125l3.015625 4.0l-1.28125 0l-2.453125 -3.28125l-0.796875 0.671875l0 2.609375l-1.03125 0l0 -9.875l1.03125 0l0 5.234375q0 0.34375 -0.046875 1.078125l0.046875 0zm7.0115967 3.5625l-1.046875 0l0 -6.953125l1.046875 0l0 6.953125zm-1.140625 -8.84375q0 -0.359375 0.171875 -0.53125q0.1875 -0.171875 0.453125 -0.171875q0.25 0 0.421875 0.171875q0.1875 0.171875 0.1875 0.53125q0 0.359375 -0.1875 0.53125q-0.171875 0.171875 -0.421875 0.171875q-0.265625 0 -0.453125 -0.171875q-0.171875 -0.171875 -0.171875 -0.53125zm8.214783 8.84375l0 -4.5q0 -0.84375 -0.390625 -1.265625q-0.375 -0.421875 -1.203125 -0.421875q-1.09375 0 -1.609375 0.59375q-0.5 0.578125 -0.5 1.9375l0 3.65625l-1.046875 0l0 -6.953125l0.84375 0l0.171875 0.953125l0.0625 0q0.3125 -0.515625 0.890625 -0.796875q0.59375 -0.28125 1.3125 -0.28125q1.25 0 1.890625 0.609375q0.640625 0.59375 0.640625 1.9375l0 4.53125l-1.0625 0zm9.11792 -6.953125l0 0.65625l-1.296875 0.15625q0.1875 0.21875 0.328125 0.578125q0.140625 0.359375 0.140625 0.8125q0 1.03125 -0.703125 1.640625q-0.703125 0.609375 -1.921875 0.609375q-0.3125 0 -0.578125 -0.0625q-0.671875 0.359375 -0.671875 0.90625q0 0.28125 0.234375 0.421875q0.234375 0.125 0.8125 0.125l1.21875 0q1.140625 0 1.734375 0.484375q0.609375 0.46875 0.609375 1.375q0 1.15625 -0.921875 1.765625q-0.921875 0.609375 -2.703125 0.609375q-1.359375 0 -2.109375 -0.515625q-0.734375 -0.5 -0.734375 -1.421875q0 -0.640625 0.40625 -1.109375q0.40625 -0.453125 1.140625 -0.625q-0.265625 -0.125 -0.453125 -0.375q-0.171875 -0.25 -0.171875 -0.59375q0 -0.375 0.203125 -0.65625q0.203125 -0.296875 0.640625 -0.5625q-0.546875 -0.21875 -0.890625 -0.75q-0.328125 -0.53125 -0.328125 -1.21875q0 -1.140625 0.6875 -1.75q0.6875 -0.625 1.9375 -0.625q0.546875 0 0.984375 0.125l2.40625 0zm-5.546875 8.125q0 0.5625 0.46875 0.84375q0.484375 0.296875 1.375 0.296875q1.328125 0 1.953125 -0.390625q0.640625 -0.390625 0.640625 -1.078125q0 -0.5625 -0.34375 -0.78125q-0.34375 -0.21875 -1.3125 -0.21875l-1.265625 0q-0.71875 0 -1.125 0.34375q-0.390625 0.34375 -0.390625 0.984375zm0.5625 -5.90625q0 0.734375 0.40625 1.109375q0.421875 0.375 1.15625 0.375q1.546875 0 1.546875 -1.5q0 -1.5625 -1.5625 -1.5625q-0.734375 0 -1.140625 0.40625q-0.40625 0.390625 -0.40625 1.171875z" fill-rule="nonzero"></path><path fill="#000000" d="m788.26465 440.55905q0 2.296875 -1.25 3.515625q-1.25 1.21875 -3.59375 1.21875l-2.5625 0l0 -9.28125l2.84375 0q2.15625 0 3.359375 1.203125q1.203125 1.203125 1.203125 3.34375zm-1.140625 0.046875q0 -1.8125 -0.921875 -2.734375q-0.90625 -0.921875 -2.703125 -0.921875l-1.5625 0l0 7.40625l1.3125 0q1.921875 0 2.890625 -0.9375q0.984375 -0.953125 0.984375 -2.8125zm7.5599976 4.6875l-0.203125 -0.984375l-0.046875 0q-0.53125 0.640625 -1.046875 0.875q-0.515625 0.234375 -1.28125 0.234375q-1.046875 0 -1.640625 -0.53125q-0.578125 -0.53125 -0.578125 -1.515625q0 -2.109375 3.375 -2.203125l1.171875 -0.046875l0 -0.4375q0 -0.8125 -0.359375 -1.203125q-0.34375 -0.390625 -1.109375 -0.390625q-0.875 0 -1.96875 0.53125l-0.328125 -0.796875q0.515625 -0.28125 1.125 -0.4375q0.609375 -0.171875 1.234375 -0.171875q1.25 0 1.84375 0.5625q0.59375 0.546875 0.59375 1.765625l0 4.75l-0.78125 0zm-2.375 -0.75q0.984375 0 1.546875 -0.53125q0.5625 -0.546875 0.5625 -1.515625l0 -0.625l-1.0625 0.046875q-1.25 0.046875 -1.8125 0.390625q-0.546875 0.34375 -0.546875 1.078125q0 0.5625 0.34375 0.859375q0.34375 0.296875 0.96875 0.296875zm7.7562256 0q0.28125 0 0.546875 -0.03125q0.265625 -0.046875 0.40625 -0.09375l0 0.8125q-0.171875 0.078125 -0.5 0.125q-0.328125 0.0625 -0.59375 0.0625q-2.03125 0 -2.03125 -2.125l0 -4.140625l-0.984375 0l0 -0.5l0.984375 -0.4375l0.453125 -1.484375l0.609375 0l0 1.609375l2.015625 0l0 0.8125l-2.015625 0l0 4.09375q0 0.625 0.296875 0.96875q0.296875 0.328125 0.8125 0.328125zm6.73645 0.75l-0.203125 -0.984375l-0.046875 0q-0.53125 0.640625 -1.046875 0.875q-0.515625 0.234375 -1.28125 0.234375q-1.046875 0 -1.640625 -0.53125q-0.578125 -0.53125 -0.578125 -1.515625q0 -2.109375 3.375 -2.203125l1.171875 -0.046875l0 -0.4375q0 -0.8125 -0.359375 -1.203125q-0.34375 -0.390625 -1.109375 -0.390625q-0.875 0 -1.96875 0.53125l-0.328125 -0.796875q0.515625 -0.28125 1.125 -0.4375q0.609375 -0.171875 1.234375 -0.171875q1.25 0 1.84375 0.5625q0.59375 0.546875 0.59375 1.765625l0 4.75l-0.78125 0zm-2.375 -0.75q0.984375 0 1.546875 -0.53125q0.5625 -0.546875 0.5625 -1.515625l0 -0.625l-1.0625 0.046875q-1.25 0.046875 -1.8125 0.390625q-0.546875 0.34375 -0.546875 1.078125q0 0.5625 0.34375 0.859375q0.34375 0.296875 0.96875 0.296875zm8.756226 -6.328125q1.359375 0 2.125 0.9375q0.765625 0.9375 0.765625 2.65625q0 1.71875 -0.765625 2.671875q-0.765625 0.9375 -2.125 0.9375q-0.6875 0 -1.25 -0.25q-0.5625 -0.25 -0.9375 -0.765625l-0.078125 0l-0.21875 0.890625l-0.75 0l0 -9.875l1.046875 0l0 2.390625q0 0.8125 -0.046875 1.453125l0.046875 0q0.734375 -1.046875 2.1875 -1.046875zm-0.15625 0.890625q-1.078125 0 -1.5625 0.625q-0.46875 0.609375 -0.46875 2.078125q0 1.46875 0.484375 2.109375q0.5 0.625 1.578125 0.625q0.96875 0 1.4375 -0.703125q0.484375 -0.71875 0.484375 -2.046875q0 -1.359375 -0.484375 -2.015625q-0.46875 -0.671875 -1.46875 -0.671875zm9.354858 6.1875l-0.203125 -0.984375l-0.046875 0q-0.53125 0.640625 -1.046875 0.875q-0.515625 0.234375 -1.28125 0.234375q-1.046875 0 -1.640625 -0.53125q-0.578125 -0.53125 -0.578125 -1.515625q0 -2.109375 3.375 -2.203125l1.171875 -0.046875l0 -0.4375q0 -0.8125 -0.359375 -1.203125q-0.34375 -0.390625 -1.109375 -0.390625q-0.875 0 -1.96875 0.53125l-0.328125 -0.796875q0.515625 -0.28125 1.125 -0.4375q0.609375 -0.171875 1.234375 -0.171875q1.25 0 1.84375 0.5625q0.59375 0.546875 0.59375 1.765625l0 4.75l-0.78125 0zm-2.375 -0.75q0.984375 0 1.546875 -0.53125q0.5625 -0.546875 0.5625 -1.515625l0 -0.625l-1.0625 0.046875q-1.25 0.046875 -1.8125 0.390625q-0.546875 0.34375 -0.546875 1.078125q0 0.5625 0.34375 0.859375q0.34375 0.296875 0.96875 0.296875zm10.006226 -1.140625q0 0.96875 -0.734375 1.5q-0.71875 0.515625 -2.03125 0.515625q-1.375 0 -2.15625 -0.4375l0 -0.96875q0.5 0.25 1.078125 0.390625q0.578125 0.140625 1.109375 0.140625q0.828125 0 1.265625 -0.25q0.453125 -0.265625 0.453125 -0.8125q0 -0.40625 -0.359375 -0.6875q-0.34375 -0.296875 -1.375 -0.6875q-0.96875 -0.359375 -1.375 -0.625q-0.40625 -0.28125 -0.609375 -0.625q-0.203125 -0.34375 -0.203125 -0.8125q0 -0.84375 0.6875 -1.328125q0.703125 -0.5 1.90625 -0.5q1.125 0 2.1875 0.453125l-0.375 0.859375q-1.046875 -0.4375 -1.890625 -0.4375q-0.75 0 -1.140625 0.234375q-0.375 0.234375 -0.375 0.65625q0 0.265625 0.140625 0.46875q0.15625 0.203125 0.46875 0.375q0.3125 0.171875 1.21875 0.515625q1.234375 0.453125 1.671875 0.90625q0.4375 0.453125 0.4375 1.15625zm4.8113403 2.015625q-1.546875 0 -2.4375 -0.9375q-0.890625 -0.9375 -0.890625 -2.609375q0 -1.6875 0.828125 -2.671875q0.828125 -0.984375 2.21875 -0.984375q1.3125 0 2.0625 0.859375q0.765625 0.859375 0.765625 2.265625l0 0.671875l-4.78125 0q0.03125 1.21875 0.609375 1.859375q0.59375 0.625 1.65625 0.625q1.125 0 2.21875 -0.46875l0 0.9375q-0.5625 0.25 -1.0625 0.34375q-0.484375 0.109375 -1.1875 0.109375zm-0.296875 -6.328125q-0.828125 0 -1.328125 0.546875q-0.5 0.546875 -0.59375 1.515625l3.640625 0q0 -1.0 -0.453125 -1.53125q-0.4375 -0.53125 -1.265625 -0.53125z" fill-rule="nonzero"></path><path fill="#000000" fill-opacity="0.0" d="m204.92389 432.49344l185.41733 0" fill-rule="nonzero"></path><path stroke="#000000" stroke-width="1.0" stroke-linejoin="round" stroke-linecap="butt" d="m204.92389 432.49344l179.41733 0" fill-rule="evenodd"></path><path fill="#000000" stroke="#000000" stroke-width="1.0" stroke-linecap="butt" d="m384.34122 434.14517l4.538086 -1.6517334l-4.538086 -1.6517334z" fill-rule="evenodd"></path><path fill="#000000" fill-opacity="0.0" d="m687.4803 432.49344l62.86615 0" fill-rule="nonzero"></path><path stroke="#000000" stroke-width="1.0" stroke-linejoin="round" stroke-linecap="butt" d="m687.4803 432.49344l56.86615 0" fill-rule="evenodd"></path><path fill="#000000" stroke="#000000" stroke-width="1.0" stroke-linecap="butt" d="m744.34644 434.14517l4.538147 -1.6517334l-4.538147 -1.6517334z" fill-rule="evenodd"></path><path fill="#000000" fill-opacity="0.0" d="m507.48557 432.49344l62.86612 0" fill-rule="nonzero"></path><path stroke="#000000" stroke-width="1.0" stroke-linejoin="round" stroke-linecap="butt" d="m507.48557 432.49344l56.86612 0" fill-rule="evenodd"></path><path fill="#000000" stroke="#000000" stroke-width="1.0" stroke-linecap="butt" d="m564.3517 434.14517l4.538147 -1.6517334l-4.538147 -1.6517334z" fill-rule="evenodd"></path></g></svg>

